<svg xmlns="http://www.w3.org/2000/svg" xmlns:xlink="http://www.w3.org/1999/xlink" contentStyleType="text/css" data-diagram-type="SEQUENCE" height="1185px" preserveAspectRatio="none" style="width:2087px;height:1185px;background:#FEFEFE;" version="1.1" viewBox="0 0 2087 1185" width="2087px" zoomAndPan="magnify"><title>Ionosense HPC - Asynchronous Processing Pipeline</title><defs/><g><rect fill="#FEFEFE" height="1185" style="stroke:none;stroke-width:1;" width="2087" x="0" y="0"/><text fill="#000000" font-family="Verdana" font-size="22" font-weight="bold" lengthAdjust="spacing" textLength="633.3916" x="725.6897" y="35.4209">Ionosense HPC - Asynchronous Processing Pipeline</text><g><title>ResearchEngine</title><rect fill="#FFFFFF" height="959.8516" style="stroke:#4169E1;stroke-width:1;" width="10" x="322.2227" y="130.3359"/></g><g><title>ResearchEngine::Impl</title><rect fill="#FFFFFF" height="901.5859" style="stroke:#4169E1;stroke-width:1;" width="10" x="607.1802" y="159.4688"/></g><g><title>Stream[0]</title><rect fill="#FFFFFF" height="45.6992" style="stroke:#4169E1;stroke-width:1;" width="10" x="795.4565" y="242.3008"/></g><g><title>Stream[1]</title><rect fill="#FFFFFF" height="346.8945" style="stroke:#4169E1;stroke-width:1;" width="10" x="995.9058" y="377.832"/></g><g><title>Stream[2]</title><rect fill="#FFFFFF" height="45.6992" style="stroke:#4169E1;stroke-width:1;" width="10" x="1237.9893" y="814.5586"/></g><g><title>Stream[2]</title><rect fill="#FFFFFF" height="39.6992" style="stroke:#4169E1;stroke-width:1;" width="10" x="1237.9893" y="950.0898"/></g><g><title>WindowStage</title><rect fill="#FFFFFF" height="71.2656" style="stroke:#4169E1;stroke-width:1;" width="10" x="1432.2622" y="417.5313"/></g><g><title>FFTStage</title><rect fill="#FFFFFF" height="71.2656" style="stroke:#4169E1;stroke-width:1;" width="10" x="1683.48" y="517.9297"/></g><g><title>MagnitudeStage</title><rect fill="#FFFFFF" height="71.2656" style="stroke:#4169E1;stroke-width:1;" width="10" x="1836.7852" y="618.3281"/></g><g><title>Client</title><rect fill="#000000" fill-opacity="0.00000" height="1008.9844" width="8" x="43.2651" y="99.2031"/><line style="stroke:#4169E1;stroke-width:1;" x1="47" x2="47" y1="99.2031" y2="1108.1875"/></g><g><title>ResearchEngine</title><rect fill="#000000" fill-opacity="0.00000" height="1008.9844" width="8" x="323.2227" y="99.2031"/><line style="stroke:#4169E1;stroke-width:1;" x1="326.6553" x2="326.6553" y1="99.2031" y2="1108.1875"/></g><g><title>ResearchEngine::Impl</title><rect fill="#000000" fill-opacity="0.00000" height="1008.9844" width="8" x="608.1802" y="99.2031"/><line style="stroke:#4169E1;stroke-width:1;" x1="611.6245" x2="611.6245" y1="99.2031" y2="1108.1875"/></g><g><title>Stream[0]</title><rect fill="#000000" fill-opacity="0.00000" height="1008.9844" width="8" x="796.4565" y="99.2031"/><line style="stroke:#4169E1;stroke-width:1;" x1="800.0601" x2="800.0601" y1="99.2031" y2="1108.1875"/></g><g><title>Stream[1]</title><rect fill="#000000" fill-opacity="0.00000" height="1008.9844" width="8" x="996.9058" y="99.2031"/><line style="stroke:#4169E1;stroke-width:1;" x1="1000.5093" x2="1000.5093" y1="99.2031" y2="1108.1875"/></g><g><title>Stream[2]</title><rect fill="#000000" fill-opacity="0.00000" height="1008.9844" width="8" x="1238.9893" y="99.2031"/><line style="stroke:#4169E1;stroke-width:1;" x1="1242.5928" x2="1242.5928" y1="99.2031" y2="1108.1875"/></g><g><title>WindowStage</title><rect fill="#000000" fill-opacity="0.00000" height="1008.9844" width="8" x="1433.2622" y="99.2031"/><line style="stroke:#4169E1;stroke-width:1;" x1="1436.2808" x2="1436.2808" y1="99.2031" y2="1108.1875"/></g><g><title>FFTStage</title><rect fill="#000000" fill-opacity="0.00000" height="1008.9844" width="8" x="1684.48" y="99.2031"/><line style="stroke:#4169E1;stroke-width:1;" x1="1687.9238" x2="1687.9238" y1="99.2031" y2="1108.1875"/></g><g><title>MagnitudeStage</title><rect fill="#000000" fill-opacity="0.00000" height="1008.9844" width="8" x="1837.7852" y="99.2031"/><line style="stroke:#4169E1;stroke-width:1;" x1="1841.4727" x2="1841.4727" y1="99.2031" y2="1108.1875"/></g><g class="participant participant-head" data-participant="Client"><rect fill="#F0F8FF" height="30.2969" rx="2.5" ry="2.5" style="stroke:#4169E1;stroke-width:1;" width="54.5303" x="20" y="67.9063"/><text fill="#000000" font-family="Verdana" font-size="14" lengthAdjust="spacing" textLength="40.5303" x="27" y="87.9014">Client</text></g><g class="participant participant-tail" data-participant="Client"><rect fill="#F0F8FF" height="30.2969" rx="2.5" ry="2.5" style="stroke:#4169E1;stroke-width:1;" width="54.5303" x="20" y="1107.1875"/><text fill="#000000" font-family="Verdana" font-size="14" lengthAdjust="spacing" textLength="40.5303" x="27" y="1127.1826">Client</text></g><g class="participant participant-head" data-participant="ResearchEngine"><rect fill="#F0F8FF" height="30.2969" rx="2.5" ry="2.5" style="stroke:#4169E1;stroke-width:1;" width="127.1348" x="263.6553" y="67.9063"/><text fill="#000000" font-family="Verdana" font-size="14" lengthAdjust="spacing" textLength="113.1348" x="270.6553" y="87.9014">ResearchEngine</text></g><g class="participant participant-tail" data-participant="ResearchEngine"><rect fill="#F0F8FF" height="30.2969" rx="2.5" ry="2.5" style="stroke:#4169E1;stroke-width:1;" width="127.1348" x="263.6553" y="1107.1875"/><text fill="#000000" font-family="Verdana" font-size="14" lengthAdjust="spacing" textLength="113.1348" x="270.6553" y="1127.1826">ResearchEngine</text></g><g class="participant participant-head" data-participant="Impl"><rect fill="#F0F8FF" height="30.2969" rx="2.5" ry="2.5" style="stroke:#4169E1;stroke-width:1;" width="167.1113" x="528.6245" y="67.9063"/><text fill="#000000" font-family="Verdana" font-size="14" lengthAdjust="spacing" textLength="153.1113" x="535.6245" y="87.9014">ResearchEngine::Impl</text></g><g class="participant participant-tail" data-participant="Impl"><rect fill="#F0F8FF" height="30.2969" rx="2.5" ry="2.5" style="stroke:#4169E1;stroke-width:1;" width="167.1113" x="528.6245" y="1107.1875"/><text fill="#000000" font-family="Verdana" font-size="14" lengthAdjust="spacing" textLength="153.1113" x="535.6245" y="1127.1826">ResearchEngine::Impl</text></g><g class="participant participant-head" data-participant="Stream0"><rect fill="#F0F8FF" height="46.5938" rx="2.5" ry="2.5" style="stroke:#4169E1;stroke-width:1;" width="84.793" x="758.0601" y="51.6094"/><text fill="#000000" font-family="Verdana" font-size="14" lengthAdjust="spacing" textLength="70.793" x="765.0601" y="71.6045">Stream[0]</text><text fill="#000000" font-family="Verdana" font-size="14" lengthAdjust="spacing" textLength="30.2148" x="785.3491" y="87.9014">H2D</text></g><g class="participant participant-tail" data-participant="Stream0"><rect fill="#F0F8FF" height="46.5938" rx="2.5" ry="2.5" style="stroke:#4169E1;stroke-width:1;" width="84.793" x="758.0601" y="1107.1875"/><text fill="#000000" font-family="Verdana" font-size="14" lengthAdjust="spacing" textLength="70.793" x="765.0601" y="1127.1826">Stream[0]</text><text fill="#000000" font-family="Verdana" font-size="14" lengthAdjust="spacing" textLength="30.2148" x="785.3491" y="1143.4795">H2D</text></g><g class="participant participant-head" data-participant="Stream1"><rect fill="#F0F8FF" height="46.5938" rx="2.5" ry="2.5" style="stroke:#4169E1;stroke-width:1;" width="84.793" x="958.5093" y="51.6094"/><text fill="#000000" font-family="Verdana" font-size="14" lengthAdjust="spacing" textLength="70.793" x="965.5093" y="71.6045">Stream[1]</text><text fill="#000000" font-family="Verdana" font-size="14" lengthAdjust="spacing" textLength="63.8408" x="968.9854" y="87.9014">Compute</text></g><g class="participant participant-tail" data-participant="Stream1"><rect fill="#F0F8FF" height="46.5938" rx="2.5" ry="2.5" style="stroke:#4169E1;stroke-width:1;" width="84.793" x="958.5093" y="1107.1875"/><text fill="#000000" font-family="Verdana" font-size="14" lengthAdjust="spacing" textLength="70.793" x="965.5093" y="1127.1826">Stream[1]</text><text fill="#000000" font-family="Verdana" font-size="14" lengthAdjust="spacing" textLength="63.8408" x="968.9854" y="1143.4795">Compute</text></g><g class="participant participant-head" data-participant="Stream2"><rect fill="#F0F8FF" height="46.5938" rx="2.5" ry="2.5" style="stroke:#4169E1;stroke-width:1;" width="84.793" x="1200.5928" y="51.6094"/><text fill="#000000" font-family="Verdana" font-size="14" lengthAdjust="spacing" textLength="70.793" x="1207.5928" y="71.6045">Stream[2]</text><text fill="#000000" font-family="Verdana" font-size="14" lengthAdjust="spacing" textLength="30.2148" x="1227.8818" y="87.9014">D2H</text></g><g class="participant participant-tail" data-participant="Stream2"><rect fill="#F0F8FF" height="46.5938" rx="2.5" ry="2.5" style="stroke:#4169E1;stroke-width:1;" width="84.793" x="1200.5928" y="1107.1875"/><text fill="#000000" font-family="Verdana" font-size="14" lengthAdjust="spacing" textLength="70.793" x="1207.5928" y="1127.1826">Stream[2]</text><text fill="#000000" font-family="Verdana" font-size="14" lengthAdjust="spacing" textLength="30.2148" x="1227.8818" y="1143.4795">D2H</text></g><g class="participant participant-head" data-participant="WindowStage"><rect fill="#F0F8FF" height="30.2969" rx="2.5" ry="2.5" style="stroke:#4169E1;stroke-width:1;" width="109.9629" x="1382.2808" y="67.9063"/><text fill="#000000" font-family="Verdana" font-size="14" lengthAdjust="spacing" textLength="95.9629" x="1389.2808" y="87.9014">WindowStage</text></g><g class="participant participant-tail" data-participant="WindowStage"><rect fill="#F0F8FF" height="30.2969" rx="2.5" ry="2.5" style="stroke:#4169E1;stroke-width:1;" width="109.9629" x="1382.2808" y="1107.1875"/><text fill="#000000" font-family="Verdana" font-size="14" lengthAdjust="spacing" textLength="95.9629" x="1389.2808" y="1127.1826">WindowStage</text></g><g class="participant participant-head" data-participant="FFTStage"><rect fill="#F0F8FF" height="30.2969" rx="2.5" ry="2.5" style="stroke:#4169E1;stroke-width:1;" width="79.1123" x="1648.9238" y="67.9063"/><text fill="#000000" font-family="Verdana" font-size="14" lengthAdjust="spacing" textLength="65.1123" x="1655.9238" y="87.9014">FFTStage</text></g><g class="participant participant-tail" data-participant="FFTStage"><rect fill="#F0F8FF" height="30.2969" rx="2.5" ry="2.5" style="stroke:#4169E1;stroke-width:1;" width="79.1123" x="1648.9238" y="1107.1875"/><text fill="#000000" font-family="Verdana" font-size="14" lengthAdjust="spacing" textLength="65.1123" x="1655.9238" y="1127.1826">FFTStage</text></g><g class="participant participant-head" data-participant="MagnitudeStage"><rect fill="#F0F8FF" height="30.2969" rx="2.5" ry="2.5" style="stroke:#4169E1;stroke-width:1;" width="128.625" x="1777.4727" y="67.9063"/><text fill="#000000" font-family="Verdana" font-size="14" lengthAdjust="spacing" textLength="114.625" x="1784.4727" y="87.9014">MagnitudeStage</text></g><g class="participant participant-tail" data-participant="MagnitudeStage"><rect fill="#F0F8FF" height="30.2969" rx="2.5" ry="2.5" style="stroke:#4169E1;stroke-width:1;" width="128.625" x="1777.4727" y="1107.1875"/><text fill="#000000" font-family="Verdana" font-size="14" lengthAdjust="spacing" textLength="114.625" x="1784.4727" y="1127.1826">MagnitudeStage</text></g><g><title>ResearchEngine</title><rect fill="#FFFFFF" height="959.8516" style="stroke:#4169E1;stroke-width:1;" width="10" x="322.2227" y="130.3359"/></g><g><title>ResearchEngine::Impl</title><rect fill="#FFFFFF" height="901.5859" style="stroke:#4169E1;stroke-width:1;" width="10" x="607.1802" y="159.4688"/></g><g><title>Stream[0]</title><rect fill="#FFFFFF" height="45.6992" style="stroke:#4169E1;stroke-width:1;" width="10" x="795.4565" y="242.3008"/></g><g><title>Stream[1]</title><rect fill="#FFFFFF" height="346.8945" style="stroke:#4169E1;stroke-width:1;" width="10" x="995.9058" y="377.832"/></g><g><title>Stream[2]</title><rect fill="#FFFFFF" height="45.6992" style="stroke:#4169E1;stroke-width:1;" width="10" x="1237.9893" y="814.5586"/></g><g><title>Stream[2]</title><rect fill="#FFFFFF" height="39.6992" style="stroke:#4169E1;stroke-width:1;" width="10" x="1237.9893" y="950.0898"/></g><g><title>WindowStage</title><rect fill="#FFFFFF" height="71.2656" style="stroke:#4169E1;stroke-width:1;" width="10" x="1432.2622" y="417.5313"/></g><g><title>FFTStage</title><rect fill="#FFFFFF" height="71.2656" style="stroke:#4169E1;stroke-width:1;" width="10" x="1683.48" y="517.9297"/></g><g><title>MagnitudeStage</title><rect fill="#FFFFFF" height="71.2656" style="stroke:#4169E1;stroke-width:1;" width="10" x="1836.7852" y="618.3281"/></g><g class="message" data-participant-1="Client" data-participant-2="ResearchEngine"><polygon fill="#4169E1" points="310.2227,126.3359,320.2227,130.3359,310.2227,134.3359,314.2227,130.3359" style="stroke:#4169E1;stroke-width:1;"/><line style="stroke:#4169E1;stroke-width:1;" x1="47.2651" x2="316.2227" y1="130.3359" y2="130.3359"/><text fill="#000000" font-family="Verdana" font-size="13" font-weight="bold" lengthAdjust="spacing" textLength="9.0454" x="54.2651" y="125.27">1</text><text fill="#000000" font-family="Verdana" font-size="13" lengthAdjust="spacing" textLength="242.9121" x="67.3105" y="125.27">process(input, output, num_samples)</text></g><g class="message" data-participant-1="ResearchEngine" data-participant-2="Impl"><polygon fill="#4169E1" points="595.1802,155.4688,605.1802,159.4688,595.1802,163.4688,599.1802,159.4688" style="stroke:#4169E1;stroke-width:1;"/><line style="stroke:#4169E1;stroke-width:1;" x1="332.2227" x2="601.1802" y1="159.4688" y2="159.4688"/><text fill="#000000" font-family="Verdana" font-size="13" font-weight="bold" lengthAdjust="spacing" textLength="9.0454" x="339.2227" y="154.4028">2</text><text fill="#000000" font-family="Verdana" font-size="13" lengthAdjust="spacing" textLength="242.9121" x="352.2681" y="154.4028">process(input, output, num_samples)</text></g><rect fill="#FFFFFF" height="3" style="stroke:#FFFFFF;stroke-width:1;" width="2075.771" x="5" y="188.0352"/><line style="stroke:#000000;stroke-width:0.5;" x1="5" x2="2080.771" y1="188.0352" y2="188.0352"/><line style="stroke:#000000;stroke-width:0.5;" x1="5" x2="2080.771" y1="191.0352" y2="191.0352"/><rect fill="#FFFFFF" height="23.1328" style="stroke:#000000;stroke-width:1;" width="192.001" x="946.885" y="177.4688"/><text fill="#000000" font-family="Verdana" font-size="13" font-weight="bold" lengthAdjust="spacing" textLength="173.4751" x="952.885" y="193.5356">Host to Device Transfer</text><g class="message" data-participant-1="Impl" data-participant-2="Stream0"><polygon fill="#4169E1" points="783.4565,238.3008,793.4565,242.3008,783.4565,246.3008,787.4565,242.3008" style="stroke:#4169E1;stroke-width:1;"/><line style="stroke:#4169E1;stroke-width:1;" x1="617.1802" x2="789.4565" y1="242.3008" y2="242.3008"/><text fill="#000000" font-family="Verdana" font-size="13" font-weight="bold" lengthAdjust="spacing" textLength="9.0454" x="624.1802" y="237.2349">3</text><text fill="#000000" font-family="Verdana" font-size="13" lengthAdjust="spacing" textLength="146.231" x="637.2256" y="237.2349">copy_from_host(input)</text></g><path d="M810,215.6016 L810,255.6016 L1010,255.6016 L1010,225.6016 L1000,215.6016 L810,215.6016" fill="#FFFACD" style="stroke:#000000;stroke-width:1;"/><path d="M1000,215.6016 L1000,225.6016 L1010,225.6016 L1000,215.6016" fill="#FFFACD" style="stroke:#000000;stroke-width:1;"/><text fill="#000000" font-family="Verdana" font-size="13" lengthAdjust="spacing" textLength="179.1499" x="816" y="232.6685">Asynchronous H2D transfer</text><text fill="#000000" font-family="Verdana" font-size="13" lengthAdjust="spacing" textLength="80.0503" x="816" y="247.8013">on Stream 0</text><g class="message" data-participant-1="Stream0" data-participant-2="Stream0"><line style="stroke:#4169E1;stroke-width:1;" x1="805.4565" x2="847.4565" y1="287" y2="287"/><line style="stroke:#4169E1;stroke-width:1;" x1="847.4565" x2="847.4565" y1="287" y2="300"/><line style="stroke:#4169E1;stroke-width:1;" x1="800.4565" x2="847.4565" y1="300" y2="300"/><polygon fill="#4169E1" points="810.4565,296,800.4565,300,810.4565,304,806.4565,300" style="stroke:#4169E1;stroke-width:1;"/><text fill="#000000" font-family="Verdana" font-size="13" font-weight="bold" lengthAdjust="spacing" textLength="9.0454" x="812.4565" y="281.9341">4</text><text fill="#000000" font-family="Verdana" font-size="13" lengthAdjust="spacing" textLength="153.4038" x="825.502" y="281.9341">record event_h2d_done</text></g><rect fill="#FFFFFF" height="3" style="stroke:#FFFFFF;stroke-width:1;" width="2075.771" x="5" y="323.5664"/><line style="stroke:#000000;stroke-width:0.5;" x1="5" x2="2080.771" y1="323.5664" y2="323.5664"/><line style="stroke:#000000;stroke-width:0.5;" x1="5" x2="2080.771" y1="326.5664" y2="326.5664"/><rect fill="#FFFFFF" height="23.1328" style="stroke:#000000;stroke-width:1;" width="147.7515" x="969.0098" y="313"/><text fill="#000000" font-family="Verdana" font-size="13" font-weight="bold" lengthAdjust="spacing" textLength="129.2256" x="975.0098" y="329.0669">Compute Pipeline</text><g class="message" data-participant-1="Impl" data-participant-2="Stream1"><polygon fill="#4169E1" points="983.9058,373.832,993.9058,377.832,983.9058,381.832,987.9058,377.832" style="stroke:#4169E1;stroke-width:1;"/><line style="stroke:#4169E1;stroke-width:1;" x1="617.1802" x2="989.9058" y1="377.832" y2="377.832"/><text fill="#000000" font-family="Verdana" font-size="13" font-weight="bold" lengthAdjust="spacing" textLength="9.0454" x="624.1802" y="372.7661">5</text><text fill="#000000" font-family="Verdana" font-size="13" lengthAdjust="spacing" textLength="144.6821" x="637.2256" y="372.7661">wait(event_h2d_done)</text></g><path d="M1010,351.1328 L1010,391.1328 L1150,391.1328 L1150,361.1328 L1140,351.1328 L1010,351.1328" fill="#FFFACD" style="stroke:#000000;stroke-width:1;"/><path d="M1140,351.1328 L1140,361.1328 L1150,361.1328 L1140,351.1328" fill="#FFFACD" style="stroke:#000000;stroke-width:1;"/><text fill="#000000" font-family="Verdana" font-size="13" lengthAdjust="spacing" textLength="119.9453" x="1016" y="368.1997">Stream 1 waits for</text><text fill="#000000" font-family="Verdana" font-size="13" lengthAdjust="spacing" textLength="104.7173" x="1016" y="383.3325">H2D completion</text><g class="message" data-participant-1="Stream1" data-participant-2="WindowStage"><polygon fill="#4169E1" points="1420.2622,413.5313,1430.2622,417.5313,1420.2622,421.5313,1424.2622,417.5313" style="stroke:#4169E1;stroke-width:1;"/><line style="stroke:#4169E1;stroke-width:1;" x1="1005.9058" x2="1426.2622" y1="417.5313" y2="417.5313"/><text fill="#000000" font-family="Verdana" font-size="13" font-weight="bold" lengthAdjust="spacing" textLength="9.0454" x="1012.9058" y="412.4653">6</text><text fill="#000000" font-family="Verdana" font-size="13" lengthAdjust="spacing" textLength="165.0327" x="1025.9512" y="412.4653">process(d_input, d_input)</text></g><g class="message" data-participant-1="WindowStage" data-participant-2="WindowStage"><line style="stroke:#4169E1;stroke-width:1;" x1="1442.2622" x2="1484.2622" y1="446.6641" y2="446.6641"/><line style="stroke:#4169E1;stroke-width:1;" x1="1484.2622" x2="1484.2622" y1="446.6641" y2="459.6641"/><line style="stroke:#4169E1;stroke-width:1;" x1="1443.2622" x2="1484.2622" y1="459.6641" y2="459.6641"/><polygon fill="#4169E1" points="1453.2622,455.6641,1443.2622,459.6641,1453.2622,463.6641,1449.2622,459.6641" style="stroke:#4169E1;stroke-width:1;"/><text fill="#000000" font-family="Verdana" font-size="13" font-weight="bold" lengthAdjust="spacing" textLength="9.0454" x="1449.2622" y="441.5981">7</text><text fill="#000000" font-family="Verdana" font-size="13" lengthAdjust="spacing" textLength="204.1724" x="1462.3076" y="441.5981">apply_window_kernel&lt;&lt;&lt;&gt;&gt;&gt;</text></g><g class="message" data-participant-1="WindowStage" data-participant-2="Stream1"><polygon fill="#4169E1" points="1016.9058,484.7969,1006.9058,488.7969,1016.9058,492.7969,1012.9058,488.7969" style="stroke:#4169E1;stroke-width:1;"/><line style="stroke:#4169E1;stroke-width:1;stroke-dasharray:2.0,2.0;" x1="1010.9058" x2="1436.2622" y1="488.7969" y2="488.7969"/><text fill="#000000" font-family="Verdana" font-size="13" font-weight="bold" lengthAdjust="spacing" textLength="9.0454" x="1022.9058" y="483.731">8</text><text fill="#000000" font-family="Verdana" font-size="13" lengthAdjust="spacing" textLength="4.1323" x="1035.9512" y="483.731">&#160;</text></g><g class="message" data-participant-1="Stream1" data-participant-2="FFTStage"><polygon fill="#4169E1" points="1671.48,513.9297,1681.48,517.9297,1671.48,521.9297,1675.48,517.9297" style="stroke:#4169E1;stroke-width:1;"/><line style="stroke:#4169E1;stroke-width:1;" x1="1005.9058" x2="1677.48" y1="517.9297" y2="517.9297"/><text fill="#000000" font-family="Verdana" font-size="13" font-weight="bold" lengthAdjust="spacing" textLength="9.0454" x="1012.9058" y="512.8638">9</text><text fill="#000000" font-family="Verdana" font-size="13" lengthAdjust="spacing" textLength="215.4712" x="1025.9512" y="512.8638">process(d_input, d_intermediate)</text></g><g class="message" data-participant-1="FFTStage" data-participant-2="FFTStage"><line style="stroke:#4169E1;stroke-width:1;" x1="1693.48" x2="1735.48" y1="547.0625" y2="547.0625"/><line style="stroke:#4169E1;stroke-width:1;" x1="1735.48" x2="1735.48" y1="547.0625" y2="560.0625"/><line style="stroke:#4169E1;stroke-width:1;" x1="1694.48" x2="1735.48" y1="560.0625" y2="560.0625"/><polygon fill="#4169E1" points="1704.48,556.0625,1694.48,560.0625,1704.48,564.0625,1700.48,560.0625" style="stroke:#4169E1;stroke-width:1;"/><text fill="#000000" font-family="Verdana" font-size="13" font-weight="bold" lengthAdjust="spacing" textLength="18.0908" x="1700.48" y="541.9966">10</text><text fill="#000000" font-family="Verdana" font-size="13" lengthAdjust="spacing" textLength="97.2144" x="1722.5708" y="541.9966">cufftExecR2C()</text></g><g class="message" data-participant-1="FFTStage" data-participant-2="Stream1"><polygon fill="#4169E1" points="1016.9058,585.1953,1006.9058,589.1953,1016.9058,593.1953,1012.9058,589.1953" style="stroke:#4169E1;stroke-width:1;"/><line style="stroke:#4169E1;stroke-width:1;stroke-dasharray:2.0,2.0;" x1="1010.9058" x2="1687.48" y1="589.1953" y2="589.1953"/><text fill="#000000" font-family="Verdana" font-size="13" font-weight="bold" lengthAdjust="spacing" textLength="18.0908" x="1022.9058" y="584.1294">11</text><text fill="#000000" font-family="Verdana" font-size="13" lengthAdjust="spacing" textLength="4.1323" x="1044.9966" y="584.1294">&#160;</text></g><g class="message" data-participant-1="Stream1" data-participant-2="MagnitudeStage"><polygon fill="#4169E1" points="1824.7852,614.3281,1834.7852,618.3281,1824.7852,622.3281,1828.7852,618.3281" style="stroke:#4169E1;stroke-width:1;"/><line style="stroke:#4169E1;stroke-width:1;" x1="1005.9058" x2="1830.7852" y1="618.3281" y2="618.3281"/><text fill="#000000" font-family="Verdana" font-size="13" font-weight="bold" lengthAdjust="spacing" textLength="18.0908" x="1012.9058" y="613.2622">12</text><text fill="#000000" font-family="Verdana" font-size="13" lengthAdjust="spacing" textLength="224.9102" x="1034.9966" y="613.2622">process(d_intermediate, d_output)</text></g><g class="message" data-participant-1="MagnitudeStage" data-participant-2="MagnitudeStage"><line style="stroke:#4169E1;stroke-width:1;" x1="1846.7852" x2="1888.7852" y1="647.4609" y2="647.4609"/><line style="stroke:#4169E1;stroke-width:1;" x1="1888.7852" x2="1888.7852" y1="647.4609" y2="660.4609"/><line style="stroke:#4169E1;stroke-width:1;" x1="1847.7852" x2="1888.7852" y1="660.4609" y2="660.4609"/><polygon fill="#4169E1" points="1857.7852,656.4609,1847.7852,660.4609,1857.7852,664.4609,1853.7852,660.4609" style="stroke:#4169E1;stroke-width:1;"/><text fill="#000000" font-family="Verdana" font-size="13" font-weight="bold" lengthAdjust="spacing" textLength="18.0908" x="1853.7852" y="642.395">13</text><text fill="#000000" font-family="Verdana" font-size="13" lengthAdjust="spacing" textLength="182.895" x="1875.876" y="642.395">magnitude_kernel&lt;&lt;&lt;&gt;&gt;&gt;</text></g><g class="message" data-participant-1="MagnitudeStage" data-participant-2="Stream1"><polygon fill="#4169E1" points="1016.9058,685.5938,1006.9058,689.5938,1016.9058,693.5938,1012.9058,689.5938" style="stroke:#4169E1;stroke-width:1;"/><line style="stroke:#4169E1;stroke-width:1;stroke-dasharray:2.0,2.0;" x1="1010.9058" x2="1840.7852" y1="689.5938" y2="689.5938"/><text fill="#000000" font-family="Verdana" font-size="13" font-weight="bold" lengthAdjust="spacing" textLength="18.0908" x="1022.9058" y="684.5278">14</text><text fill="#000000" font-family="Verdana" font-size="13" lengthAdjust="spacing" textLength="4.1323" x="1044.9966" y="684.5278">&#160;</text></g><g class="message" data-participant-1="Stream1" data-participant-2="Stream1"><line style="stroke:#4169E1;stroke-width:1;" x1="1005.9058" x2="1047.9058" y1="723.7266" y2="723.7266"/><line style="stroke:#4169E1;stroke-width:1;" x1="1047.9058" x2="1047.9058" y1="723.7266" y2="736.7266"/><line style="stroke:#4169E1;stroke-width:1;" x1="1000.9058" x2="1047.9058" y1="736.7266" y2="736.7266"/><polygon fill="#4169E1" points="1010.9058,732.7266,1000.9058,736.7266,1010.9058,740.7266,1006.9058,736.7266" style="stroke:#4169E1;stroke-width:1;"/><text fill="#000000" font-family="Verdana" font-size="13" font-weight="bold" lengthAdjust="spacing" textLength="18.0908" x="1012.9058" y="718.6606">15</text><text fill="#000000" font-family="Verdana" font-size="13" lengthAdjust="spacing" textLength="185.9927" x="1034.9966" y="718.6606">record event_compute_done</text></g><rect fill="#FFFFFF" height="3" style="stroke:#FFFFFF;stroke-width:1;" width="2075.771" x="5" y="760.293"/><line style="stroke:#000000;stroke-width:0.5;" x1="5" x2="2080.771" y1="760.293" y2="760.293"/><line style="stroke:#000000;stroke-width:0.5;" x1="5" x2="2080.771" y1="763.293" y2="763.293"/><rect fill="#FFFFFF" height="23.1328" style="stroke:#000000;stroke-width:1;" width="192.001" x="946.885" y="749.7266"/><text fill="#000000" font-family="Verdana" font-size="13" font-weight="bold" lengthAdjust="spacing" textLength="173.4751" x="952.885" y="765.7935">Device to Host Transfer</text><g class="message" data-participant-1="Impl" data-participant-2="Stream2"><polygon fill="#4169E1" points="1225.9893,810.5586,1235.9893,814.5586,1225.9893,818.5586,1229.9893,814.5586" style="stroke:#4169E1;stroke-width:1;"/><line style="stroke:#4169E1;stroke-width:1;" x1="617.1802" x2="1231.9893" y1="814.5586" y2="814.5586"/><text fill="#000000" font-family="Verdana" font-size="13" font-weight="bold" lengthAdjust="spacing" textLength="18.0908" x="624.1802" y="809.4927">16</text><text fill="#000000" font-family="Verdana" font-size="13" lengthAdjust="spacing" textLength="177.271" x="646.271" y="809.4927">wait(event_compute_done)</text></g><path d="M1252,787.8594 L1252,827.8594 L1407,827.8594 L1407,797.8594 L1397,787.8594 L1252,787.8594" fill="#FFFACD" style="stroke:#000000;stroke-width:1;"/><path d="M1397,787.8594 L1397,797.8594 L1407,797.8594 L1397,787.8594" fill="#FFFACD" style="stroke:#000000;stroke-width:1;"/><text fill="#000000" font-family="Verdana" font-size="13" lengthAdjust="spacing" textLength="119.9453" x="1258" y="804.9263">Stream 2 waits for</text><text fill="#000000" font-family="Verdana" font-size="13" lengthAdjust="spacing" textLength="134.0117" x="1258" y="820.0591">compute completion</text><g class="message" data-participant-1="Stream2" data-participant-2="Stream2"><line style="stroke:#4169E1;stroke-width:1;" x1="1247.9893" x2="1289.9893" y1="859.2578" y2="859.2578"/><line style="stroke:#4169E1;stroke-width:1;" x1="1289.9893" x2="1289.9893" y1="859.2578" y2="872.2578"/><line style="stroke:#4169E1;stroke-width:1;" x1="1242.9893" x2="1289.9893" y1="872.2578" y2="872.2578"/><polygon fill="#4169E1" points="1252.9893,868.2578,1242.9893,872.2578,1252.9893,876.2578,1248.9893,872.2578" style="stroke:#4169E1;stroke-width:1;"/><text fill="#000000" font-family="Verdana" font-size="13" font-weight="bold" lengthAdjust="spacing" textLength="18.0908" x="1254.9893" y="854.1919">17</text><text fill="#000000" font-family="Verdana" font-size="13" lengthAdjust="spacing" textLength="138.1821" x="1277.0801" y="854.1919">copy_to_host(output)</text></g><rect fill="#FFFFFF" height="3" style="stroke:#FFFFFF;stroke-width:1;" width="2075.771" x="5" y="895.8242"/><line style="stroke:#000000;stroke-width:0.5;" x1="5" x2="2080.771" y1="895.8242" y2="895.8242"/><line style="stroke:#000000;stroke-width:0.5;" x1="5" x2="2080.771" y1="898.8242" y2="898.8242"/><rect fill="#FFFFFF" height="23.1328" style="stroke:#000000;stroke-width:1;" width="136.8271" x="974.4719" y="885.2578"/><text fill="#000000" font-family="Verdana" font-size="13" font-weight="bold" lengthAdjust="spacing" textLength="118.3013" x="980.4719" y="901.3247">Synchronization</text><g class="message" data-participant-1="Impl" data-participant-2="Stream2"><polygon fill="#4169E1" points="1225.9893,946.0898,1235.9893,950.0898,1225.9893,954.0898,1229.9893,950.0898" style="stroke:#4169E1;stroke-width:1;"/><line style="stroke:#4169E1;stroke-width:1;" x1="617.1802" x2="1231.9893" y1="950.0898" y2="950.0898"/><text fill="#000000" font-family="Verdana" font-size="13" font-weight="bold" lengthAdjust="spacing" textLength="18.0908" x="624.1802" y="945.0239">18</text><text fill="#000000" font-family="Verdana" font-size="13" lengthAdjust="spacing" textLength="88.207" x="646.271" y="945.0239">synchronize()</text></g><path d="M1252,923.3906 L1252,963.3906 L1373,963.3906 L1373,933.3906 L1363,923.3906 L1252,923.3906" fill="#FFFACD" style="stroke:#000000;stroke-width:1;"/><path d="M1363,923.3906 L1363,933.3906 L1373,933.3906 L1363,923.3906" fill="#FFFACD" style="stroke:#000000;stroke-width:1;"/><text fill="#000000" font-family="Verdana" font-size="13" lengthAdjust="spacing" textLength="100.2803" x="1258" y="940.4575">Block until D2H</text><text fill="#000000" font-family="Verdana" font-size="13" lengthAdjust="spacing" textLength="60.7217" x="1258" y="955.5903">complete</text><g class="message" data-participant-1="Stream2" data-participant-2="Impl"><polygon fill="#4169E1" points="628.1802,985.7891,618.1802,989.7891,628.1802,993.7891,624.1802,989.7891" style="stroke:#4169E1;stroke-width:1;"/><line style="stroke:#4169E1;stroke-width:1;stroke-dasharray:2.0,2.0;" x1="622.1802" x2="1241.9893" y1="989.7891" y2="989.7891"/><text fill="#000000" font-family="Verdana" font-size="13" font-weight="bold" lengthAdjust="spacing" textLength="18.0908" x="634.1802" y="984.7231">19</text><text fill="#000000" font-family="Verdana" font-size="13" lengthAdjust="spacing" textLength="4.1323" x="656.271" y="984.7231">&#160;</text></g><g class="message" data-participant-1="Impl" data-participant-2="Impl"><line style="stroke:#4169E1;stroke-width:1;" x1="617.1802" x2="659.1802" y1="1018.9219" y2="1018.9219"/><line style="stroke:#4169E1;stroke-width:1;" x1="659.1802" x2="659.1802" y1="1018.9219" y2="1031.9219"/><line style="stroke:#4169E1;stroke-width:1;" x1="618.1802" x2="659.1802" y1="1031.9219" y2="1031.9219"/><polygon fill="#4169E1" points="628.1802,1027.9219,618.1802,1031.9219,628.1802,1035.9219,624.1802,1031.9219" style="stroke:#4169E1;stroke-width:1;"/><text fill="#000000" font-family="Verdana" font-size="13" font-weight="bold" lengthAdjust="spacing" textLength="18.0908" x="624.1802" y="1013.856">20</text><text fill="#000000" font-family="Verdana" font-size="13" lengthAdjust="spacing" textLength="120.396" x="646.271" y="1013.856">update_statistics()</text></g><g class="message" data-participant-1="Impl" data-participant-2="ResearchEngine"><polygon fill="#4169E1" points="343.2227,1057.0547,333.2227,1061.0547,343.2227,1065.0547,339.2227,1061.0547" style="stroke:#4169E1;stroke-width:1;"/><line style="stroke:#4169E1;stroke-width:1;stroke-dasharray:2.0,2.0;" x1="337.2227" x2="611.1802" y1="1061.0547" y2="1061.0547"/><text fill="#000000" font-family="Verdana" font-size="13" font-weight="bold" lengthAdjust="spacing" textLength="18.0908" x="349.2227" y="1055.9888">21</text><text fill="#000000" font-family="Verdana" font-size="13" lengthAdjust="spacing" textLength="4.1323" x="371.3135" y="1055.9888">&#160;</text></g><g class="message" data-participant-1="ResearchEngine" data-participant-2="Client"><polygon fill="#4169E1" points="58.2651,1086.1875,48.2651,1090.1875,58.2651,1094.1875,54.2651,1090.1875" style="stroke:#4169E1;stroke-width:1;"/><line style="stroke:#4169E1;stroke-width:1;stroke-dasharray:2.0,2.0;" x1="52.2651" x2="326.2227" y1="1090.1875" y2="1090.1875"/><text fill="#000000" font-family="Verdana" font-size="13" font-weight="bold" lengthAdjust="spacing" textLength="18.0908" x="64.2651" y="1085.1216">22</text><text fill="#000000" font-family="Verdana" font-size="13" lengthAdjust="spacing" textLength="4.1323" x="86.356" y="1085.1216">&#160;</text></g><text fill="#000000" font-family="Verdana" font-size="10" lengthAdjust="spacing" textLength="213.7549" x="935.5081" y="1170.0635">IEEE Publication Quality Diagram - &#169; 2025</text><!--SRC=[bLNRRXen47ttLqpJ5o8r4hjggnO5f0HO4QcLQ8ZKXwPQETu1B7RjhUqDfN_Kt-YNrNi1R7PHMY64BsTcpepF3A_C6ZE4FALS4BtX8gUAPl14sMQbP26IiKobWjVHjFmu28q_2XGCvrGPpdXEXRbj6VMZ3r7qWf5K2Qh6u6tm_kCqw33un9VsA_3Vq3TAoUqva906sqoZw6Oy8SHmaoBSII4r2eqmcu_X2cxqJh2rigU5XhcI3BNcOWLpdcDgMP6bj4uLt4sdKvWNJobdr70fu4j1KsvsCE5qLSQ-WZ-_8Uo7xmZ9ZoM0SSfH6E_e7ZLInTPJiIe3k5SN_jrWS9VbwGLG3UN2XowCGffzwtz_5BDmKe7getudBh2uiSpomg233JgneSLEmfc32ptSLouIkLqOklBfHz53-_0pNGbkYWJhAq8B8qMHFQ4YfAuEN8rEYZA0l7wAddtQmhm1MPZgrnh6cjfQeBuab1d-J0sULfJu-z9zMRx_T5fLd0o7C9FQW94mmMVE41uK5Nff9J4SaX9JkcyAFm0cyrsyL3ABrzQg3kJut3zGALHGVBKs0r-1zYN1D04UXPLPRG5zqfXwqHGospI0pxQ8yJfCuaJQz1DinIlJQ1x_eEms_s00MyfDp_VNeXzuz1k2GMMgOIbLfKTRYRAWPQkGXdjGHdAaStoF96vUf5au8LsfEUkMAvhdwIxULaVn1fN0zFhwUZGQ-LPkhcwXt30ktRsYpt2rao73X5iF3kL35-mNlYDMB9Tc-XFPVJZkNJgWSzmE_bnYVbVvz8wiIfQroXr-9mtfRxjyP_kzNzXJmtFyJmU0ayK1xocPrKeze-QWKdFJZBOjg_OytvIX9shNTKlOOPUmGrVOZRahxiRK2rXD0IFh6R2lVokHi4faqNG__rN_htGbe0yOxBt0-ZQLR0E5C3m5Ey9hofOg7eaUnc4dfNtm6bBaYRsDjR7aj1tfsiQl4Hqps_LNJy_JGMoDwf7lWttONm00]--></g></svg>