<svg xmlns="http://www.w3.org/2000/svg" xmlns:xlink="http://www.w3.org/1999/xlink" contentStyleType="text/css" data-diagram-type="CLASS" height="920px" preserveAspectRatio="none" style="width:1912px;height:920px;background:#FEFEFE;" version="1.1" viewBox="0 0 1912 920" width="1912px" zoomAndPan="magnify"><title>Ionosense HPC - Memory Management Architecture</title><defs/><g><rect fill="#FEFEFE" height="920" style="stroke:none;stroke-width:1;" width="1912" x="0" y="0"/><g class="title" data-source-line="8"><text fill="#000000" font-family="Verdana" font-size="22" font-weight="bold" lengthAdjust="spacing" textLength="640.4063" x="631.4578" y="35.4209">Ionosense HPC - Memory Management Architecture</text></g><!--cluster Host Memory Space--><g class="cluster" data-entity="Host Memory Space" data-source-line="11" data-uid="ent0002" id="cluster_Host Memory Space"><path d="M1073.5,414.6094 L1231.6172,414.6094 A3.75,3.75 0 0 1 1234.1172,417.1094 L1241.1172,436.9063 L1541.5,436.9063 A2.5,2.5 0 0 1 1544,439.4063 L1544,722.1094 A2.5,2.5 0 0 1 1541.5,724.6094 L1073.5,724.6094 A2.5,2.5 0 0 1 1071,722.1094 L1071,417.1094 A2.5,2.5 0 0 1 1073.5,414.6094" fill="#90EE90" style="stroke:#000000;stroke-width:1;"/><line style="stroke:#000000;stroke-width:1;" x1="1071" x2="1241.1172" y1="436.9063" y2="436.9063"/><text fill="#000000" font-family="Verdana" font-size="14" font-weight="bold" lengthAdjust="spacing" textLength="157.1172" x="1075" y="429.6045">Host Memory Space</text></g><!--cluster Device Memory Space--><g class="cluster" data-entity="Device Memory Space" data-source-line="33" data-uid="ent0007" id="cluster_Device Memory Space"><path d="M13.5,57.6094 L188.0918,57.6094 A3.75,3.75 0 0 1 190.5918,60.1094 L197.5918,79.9063 L682.5,79.9063 A2.5,2.5 0 0 1 685,82.4063 L685,722.1094 A2.5,2.5 0 0 1 682.5,724.6094 L13.5,724.6094 A2.5,2.5 0 0 1 11,722.1094 L11,60.1094 A2.5,2.5 0 0 1 13.5,57.6094" fill="#FFD700" style="stroke:#000000;stroke-width:1;"/><line style="stroke:#000000;stroke-width:1;" x1="11" x2="197.5918" y1="79.9063" y2="79.9063"/><text fill="#000000" font-family="Verdana" font-size="14" font-weight="bold" lengthAdjust="spacing" textLength="173.5918" x="15" y="72.6045">Device Memory Space</text></g><!--cluster PCIe Transfer--><g class="cluster" data-entity="PCIe Transfer" data-source-line="65" data-uid="ent0014" id="cluster_PCIe Transfer"><path d="M863.5,773.6094 L971.3047,773.6094 A3.75,3.75 0 0 1 973.8047,776.1094 L980.8047,795.9063 L1192.5,795.9063 A2.5,2.5 0 0 1 1195,798.4063 L1195,882.1094 A2.5,2.5 0 0 1 1192.5,884.6094 L863.5,884.6094 A2.5,2.5 0 0 1 861,882.1094 L861,776.1094 A2.5,2.5 0 0 1 863.5,773.6094" fill="#FFE4E4" style="stroke:#000000;stroke-width:1;"/><line style="stroke:#000000;stroke-width:1;" x1="861" x2="980.8047" y1="795.9063" y2="795.9063"/><text fill="#000000" font-family="Verdana" font-size="14" font-weight="bold" lengthAdjust="spacing" textLength="106.8047" x="865" y="788.6045">PCIe Transfer</text><text fill="#000000" font-family="Verdana" font-size="14" font-style="italic" lengthAdjust="spacing" textLength="85.0322" x="989.4839" y="810.9014">&#171;Transport&#187;</text></g><!--class HostInput--><g class="entity" data-entity="HostInput" data-source-line="12" data-uid="ent0003" id="entity_HostInput"><rect fill="#F0F8FF" height="91.1875" rx="2.5" ry="2.5" style="stroke:#4169E1;stroke-width:1;" width="144.3369" x="1112" y="449.6094"/><ellipse cx="1139.8192" cy="470.9063" fill="#FFFFFF" rx="9" ry="9" style="stroke:#000000;stroke-width:1;"/><path d="M1142.788,476.5469 Q1142.2099,476.8438 1141.5692,476.9844 Q1140.9286,477.1406 1140.2255,477.1406 Q1137.7255,477.1406 1136.3974,475.5 Q1135.0849,473.8438 1135.0849,470.7188 Q1135.0849,467.5938 1136.3974,465.9375 Q1137.7255,464.2813 1140.2255,464.2813 Q1140.9286,464.2813 1141.5692,464.4375 Q1142.2255,464.5938 1142.788,464.8906 L1142.788,467.6094 Q1142.163,467.0313 1141.5692,466.7656 Q1140.9755,466.4844 1140.3505,466.4844 Q1139.0067,466.4844 1138.3192,467.5625 Q1137.6317,468.625 1137.6317,470.7188 Q1137.6317,472.8125 1138.3192,473.8906 Q1139.0067,474.9531 1140.3505,474.9531 Q1140.9755,474.9531 1141.5692,474.6875 Q1142.163,474.4063 1142.788,473.8281 L1142.788,476.5469 Z " fill="#000000"/><text fill="#000000" font-family="Verdana" font-size="14" lengthAdjust="spacing" textLength="83.4053" x="1155.1124" y="467.6045">Input Buffer</text><text fill="#000000" font-family="Verdana" font-size="14" lengthAdjust="spacing" textLength="49.376" x="1172.1271" y="483.9014">(float*)</text><line style="stroke:#4169E1;stroke-width:1;" x1="1113" x2="1255.3369" y1="492.2031" y2="492.2031"/><text fill="#000000" font-family="Verdana" font-size="14" lengthAdjust="spacing" textLength="115.958" x="1118" y="509.1982">size: nfft * batch</text><text fill="#000000" font-family="Verdana" font-size="14" lengthAdjust="spacing" textLength="132.3369" x="1118" y="525.4951">layout: interleaved</text><line style="stroke:#4169E1;stroke-width:1;" x1="1113" x2="1255.3369" y1="532.7969" y2="532.7969"/></g><!--class HostOutput--><g class="entity" data-entity="HostOutput" data-source-line="17" data-uid="ent0004" id="entity_HostOutput"><rect fill="#F0F8FF" height="91.1875" rx="2.5" ry="2.5" style="stroke:#4169E1;stroke-width:1;" width="211.2744" x="1316.5" y="617.6094"/><ellipse cx="1370.4946" cy="638.9063" fill="#FFFFFF" rx="9" ry="9" style="stroke:#000000;stroke-width:1;"/><path d="M1373.4634,644.5469 Q1372.8853,644.8438 1372.2446,644.9844 Q1371.604,645.1406 1370.9009,645.1406 Q1368.4009,645.1406 1367.0728,643.5 Q1365.7603,641.8438 1365.7603,638.7188 Q1365.7603,635.5938 1367.0728,633.9375 Q1368.4009,632.2813 1370.9009,632.2813 Q1371.604,632.2813 1372.2446,632.4375 Q1372.9009,632.5938 1373.4634,632.8906 L1373.4634,635.6094 Q1372.8384,635.0313 1372.2446,634.7656 Q1371.6509,634.4844 1371.0259,634.4844 Q1369.6821,634.4844 1368.9946,635.5625 Q1368.3071,636.625 1368.3071,638.7188 Q1368.3071,640.8125 1368.9946,641.8906 Q1369.6821,642.9531 1371.0259,642.9531 Q1371.6509,642.9531 1372.2446,642.6875 Q1372.8384,642.4063 1373.4634,641.8281 L1373.4634,644.5469 Z " fill="#000000"/><text fill="#000000" font-family="Verdana" font-size="14" lengthAdjust="spacing" textLength="95.7852" x="1387.9946" y="635.6045">Output Buffer</text><text fill="#000000" font-family="Verdana" font-size="14" lengthAdjust="spacing" textLength="49.376" x="1411.1992" y="651.9014">(float*)</text><line style="stroke:#4169E1;stroke-width:1;" x1="1317.5" x2="1526.7744" y1="660.2031" y2="660.2031"/><text fill="#000000" font-family="Verdana" font-size="14" lengthAdjust="spacing" textLength="199.2744" x="1322.5" y="677.1982">layout: magnitude spectrum</text><line style="stroke:#4169E1;stroke-width:1;" x1="1317.5" x2="1526.7744" y1="684.5" y2="684.5"/><text fill="#000000" font-family="Verdana" font-size="14" lengthAdjust="spacing" textLength="161.1436" x="1322.5" y="701.4951">size: (nfft/2+1) * batch</text></g><!--class Pinned0--><g class="entity" data-entity="Pinned0" data-source-line="22" data-uid="ent0005" id="entity_Pinned0"><rect fill="#F0F8FF" height="88.8594" rx="2.5" ry="2.5" style="stroke:#4169E1;stroke-width:1;" width="193.8428" x="1087" y="618.6094"/><ellipse cx="1110.7341" cy="638.7422" fill="#FFFFFF" rx="9" ry="9" style="stroke:#000000;stroke-width:1;"/><path d="M1113.7028,644.3828 Q1113.1247,644.6797 1112.4841,644.8203 Q1111.8435,644.9766 1111.1403,644.9766 Q1108.6403,644.9766 1107.3122,643.3359 Q1105.9997,641.6797 1105.9997,638.5547 Q1105.9997,635.4297 1107.3122,633.7734 Q1108.6403,632.1172 1111.1403,632.1172 Q1111.8435,632.1172 1112.4841,632.2734 Q1113.1403,632.4297 1113.7028,632.7266 L1113.7028,635.4453 Q1113.0778,634.8672 1112.4841,634.6016 Q1111.8903,634.3203 1111.2653,634.3203 Q1109.9216,634.3203 1109.2341,635.3984 Q1108.5466,636.4609 1108.5466,638.5547 Q1108.5466,640.6484 1109.2341,641.7266 Q1109.9216,642.7891 1111.2653,642.7891 Q1111.8903,642.7891 1112.4841,642.5234 Q1113.0778,642.2422 1113.7028,641.6641 L1113.7028,644.3828 Z " fill="#000000"/><text fill="#000000" font-family="Verdana" font-size="12" font-style="italic" lengthAdjust="spacing" textLength="88.3359" x="1151.9461" y="634.748">&#171;page-locked&#187;</text><text fill="#000000" font-family="Verdana" font-size="14" lengthAdjust="spacing" textLength="141.9893" x="1125.1194" y="650.5732">PinnedHostBuffer[0]</text><line style="stroke:#4169E1;stroke-width:1;" x1="1088" x2="1279.8428" y1="658.875" y2="658.875"/><text fill="#000000" font-family="Verdana" font-size="14" lengthAdjust="spacing" textLength="115.958" x="1093" y="675.8701">size: nfft * batch</text><text fill="#000000" font-family="Verdana" font-size="14" lengthAdjust="spacing" textLength="181.8428" x="1093" y="692.167">purpose: double buffering</text><line style="stroke:#4169E1;stroke-width:1;" x1="1088" x2="1279.8428" y1="699.4688" y2="699.4688"/></g><!--class Pinned1--><g class="entity" data-entity="Pinned1" data-source-line="27" data-uid="ent0006" id="entity_Pinned1"><rect fill="#F0F8FF" height="88.8594" rx="2.5" ry="2.5" style="stroke:#4169E1;stroke-width:1;" width="193.8428" x="1330" y="450.6094"/><ellipse cx="1353.7341" cy="470.7422" fill="#FFFFFF" rx="9" ry="9" style="stroke:#000000;stroke-width:1;"/><path d="M1356.7028,476.3828 Q1356.1247,476.6797 1355.4841,476.8203 Q1354.8435,476.9766 1354.1403,476.9766 Q1351.6403,476.9766 1350.3122,475.3359 Q1348.9997,473.6797 1348.9997,470.5547 Q1348.9997,467.4297 1350.3122,465.7734 Q1351.6403,464.1172 1354.1403,464.1172 Q1354.8435,464.1172 1355.4841,464.2734 Q1356.1403,464.4297 1356.7028,464.7266 L1356.7028,467.4453 Q1356.0778,466.8672 1355.4841,466.6016 Q1354.8903,466.3203 1354.2653,466.3203 Q1352.9216,466.3203 1352.2341,467.3984 Q1351.5466,468.4609 1351.5466,470.5547 Q1351.5466,472.6484 1352.2341,473.7266 Q1352.9216,474.7891 1354.2653,474.7891 Q1354.8903,474.7891 1355.4841,474.5234 Q1356.0778,474.2422 1356.7028,473.6641 L1356.7028,476.3828 Z " fill="#000000"/><text fill="#000000" font-family="Verdana" font-size="12" font-style="italic" lengthAdjust="spacing" textLength="88.3359" x="1394.9461" y="466.748">&#171;page-locked&#187;</text><text fill="#000000" font-family="Verdana" font-size="14" lengthAdjust="spacing" textLength="141.9893" x="1368.1194" y="482.5732">PinnedHostBuffer[1]</text><line style="stroke:#4169E1;stroke-width:1;" x1="1331" x2="1522.8428" y1="490.875" y2="490.875"/><text fill="#000000" font-family="Verdana" font-size="14" lengthAdjust="spacing" textLength="115.958" x="1336" y="507.8701">size: nfft * batch</text><text fill="#000000" font-family="Verdana" font-size="14" lengthAdjust="spacing" textLength="181.8428" x="1336" y="524.167">purpose: double buffering</text><line style="stroke:#4169E1;stroke-width:1;" x1="1331" x2="1522.8428" y1="531.4688" y2="531.4688"/></g><!--class DevInput0--><g class="entity" data-entity="DevInput0" data-source-line="34" data-uid="ent0008" id="entity_DevInput0"><rect fill="#F0F8FF" height="91.1875" rx="2.5" ry="2.5" style="stroke:#4169E1;stroke-width:1;" width="226.874" x="296.5" y="260.6094"/><ellipse cx="350.98" cy="281.9063" fill="#FFFFFF" rx="9" ry="9" style="stroke:#000000;stroke-width:1;"/><path d="M353.9487,287.5469 Q353.3706,287.8438 352.73,287.9844 Q352.0894,288.1406 351.3862,288.1406 Q348.8862,288.1406 347.5581,286.5 Q346.2456,284.8438 346.2456,281.7188 Q346.2456,278.5938 347.5581,276.9375 Q348.8862,275.2813 351.3862,275.2813 Q352.0894,275.2813 352.73,275.4375 Q353.3862,275.5938 353.9487,275.8906 L353.9487,278.6094 Q353.3237,278.0313 352.73,277.7656 Q352.1362,277.4844 351.5112,277.4844 Q350.1675,277.4844 349.48,278.5625 Q348.7925,279.625 348.7925,281.7188 Q348.7925,283.8125 349.48,284.8906 Q350.1675,285.9531 351.5112,285.9531 Q352.1362,285.9531 352.73,285.6875 Q353.3237,285.4063 353.9487,284.8281 L353.9487,287.5469 Z " fill="#000000"/><text fill="#000000" font-family="Verdana" font-size="14" lengthAdjust="spacing" textLength="110.4141" x="368.48" y="278.6045">DeviceBuffer[0]</text><text fill="#000000" font-family="Verdana" font-size="14" lengthAdjust="spacing" textLength="36.251" x="405.5615" y="294.9014">Input</text><line style="stroke:#4169E1;stroke-width:1;" x1="297.5" x2="522.374" y1="303.2031" y2="303.2031"/><text fill="#000000" font-family="Verdana" font-size="14" lengthAdjust="spacing" textLength="73.3154" x="302.5" y="320.1982">stride: nfft</text><line style="stroke:#4169E1;stroke-width:1;" x1="297.5" x2="522.374" y1="327.5" y2="327.5"/><text fill="#000000" font-family="Verdana" font-size="14" lengthAdjust="spacing" textLength="214.874" x="302.5" y="344.4951">size: nfft * batch * sizeof(float)</text></g><!--class DevInput1--><g class="entity" data-entity="DevInput1" data-source-line="39" data-uid="ent0009" id="entity_DevInput1"><rect fill="#F0F8FF" height="91.1875" rx="2.5" ry="2.5" style="stroke:#4169E1;stroke-width:1;" width="226.874" x="441.5" y="92.6094"/><ellipse cx="495.98" cy="113.9063" fill="#FFFFFF" rx="9" ry="9" style="stroke:#000000;stroke-width:1;"/><path d="M498.9487,119.5469 Q498.3706,119.8438 497.73,119.9844 Q497.0894,120.1406 496.3862,120.1406 Q493.8862,120.1406 492.5581,118.5 Q491.2456,116.8438 491.2456,113.7188 Q491.2456,110.5938 492.5581,108.9375 Q493.8862,107.2813 496.3862,107.2813 Q497.0894,107.2813 497.73,107.4375 Q498.3862,107.5938 498.9487,107.8906 L498.9487,110.6094 Q498.3237,110.0313 497.73,109.7656 Q497.1362,109.4844 496.5112,109.4844 Q495.1675,109.4844 494.48,110.5625 Q493.7925,111.625 493.7925,113.7188 Q493.7925,115.8125 494.48,116.8906 Q495.1675,117.9531 496.5112,117.9531 Q497.1362,117.9531 497.73,117.6875 Q498.3237,117.4063 498.9487,116.8281 L498.9487,119.5469 Z " fill="#000000"/><text fill="#000000" font-family="Verdana" font-size="14" lengthAdjust="spacing" textLength="110.4141" x="513.48" y="110.6045">DeviceBuffer[1]</text><text fill="#000000" font-family="Verdana" font-size="14" lengthAdjust="spacing" textLength="36.251" x="550.5615" y="126.9014">Input</text><line style="stroke:#4169E1;stroke-width:1;" x1="442.5" x2="667.374" y1="135.2031" y2="135.2031"/><text fill="#000000" font-family="Verdana" font-size="14" lengthAdjust="spacing" textLength="73.3154" x="447.5" y="152.1982">stride: nfft</text><line style="stroke:#4169E1;stroke-width:1;" x1="442.5" x2="667.374" y1="159.5" y2="159.5"/><text fill="#000000" font-family="Verdana" font-size="14" lengthAdjust="spacing" textLength="214.874" x="447.5" y="176.4951">size: nfft * batch * sizeof(float)</text></g><!--class DevIntermediate--><g class="entity" data-entity="DevIntermediate" data-source-line="44" data-uid="ent0010" id="entity_DevIntermediate"><rect fill="#F0F8FF" height="91.1875" rx="2.5" ry="2.5" style="stroke:#4169E1;stroke-width:1;" width="280.9668" x="387.5" y="449.6094"/><ellipse cx="478.9419" cy="470.9063" fill="#FFFFFF" rx="9" ry="9" style="stroke:#000000;stroke-width:1;"/><path d="M481.9106,476.5469 Q481.3325,476.8438 480.6919,476.9844 Q480.0513,477.1406 479.3481,477.1406 Q476.8481,477.1406 475.52,475.5 Q474.2075,473.8438 474.2075,470.7188 Q474.2075,467.5938 475.52,465.9375 Q476.8481,464.2813 479.3481,464.2813 Q480.0513,464.2813 480.6919,464.4375 Q481.3481,464.5938 481.9106,464.8906 L481.9106,467.6094 Q481.2856,467.0313 480.6919,466.7656 Q480.0981,466.4844 479.4731,466.4844 Q478.1294,466.4844 477.4419,467.5625 Q476.7544,468.625 476.7544,470.7188 Q476.7544,472.8125 477.4419,473.8906 Q478.1294,474.9531 479.4731,474.9531 Q480.0981,474.9531 480.6919,474.6875 Q481.2856,474.4063 481.9106,473.8281 L481.9106,476.5469 Z " fill="#000000"/><text fill="#000000" font-family="Verdana" font-size="14" lengthAdjust="spacing" textLength="90.583" x="496.4419" y="467.6045">DeviceBuffer</text><text fill="#000000" font-family="Verdana" font-size="14" lengthAdjust="spacing" textLength="90.5693" x="496.4487" y="483.9014">Intermediate</text><line style="stroke:#4169E1;stroke-width:1;" x1="388.5" x2="667.4668" y1="492.2031" y2="492.2031"/><line style="stroke:#4169E1;stroke-width:1;" x1="388.5" x2="667.4668" y1="500.2031" y2="500.2031"/><text fill="#000000" font-family="Verdana" font-size="14" lengthAdjust="spacing" textLength="268.9668" x="393.5" y="517.1982">size: (nfft/2+1) * batch * sizeof(float2)</text><text fill="#000000" font-family="Verdana" font-size="14" lengthAdjust="spacing" textLength="210.1094" x="393.5" y="533.4951">format: complex (R2C output)</text></g><!--class DevOutput--><g class="entity" data-entity="DevOutput" data-source-line="49" data-uid="ent0011" id="entity_DevOutput"><rect fill="#F0F8FF" height="91.1875" rx="2.5" ry="2.5" style="stroke:#4169E1;stroke-width:1;" width="272.0596" x="393" y="617.6094"/><ellipse cx="479.9883" cy="638.9063" fill="#FFFFFF" rx="9" ry="9" style="stroke:#000000;stroke-width:1;"/><path d="M482.957,644.5469 Q482.3789,644.8438 481.7383,644.9844 Q481.0977,645.1406 480.3945,645.1406 Q477.8945,645.1406 476.5664,643.5 Q475.2539,641.8438 475.2539,638.7188 Q475.2539,635.5938 476.5664,633.9375 Q477.8945,632.2813 480.3945,632.2813 Q481.0977,632.2813 481.7383,632.4375 Q482.3945,632.5938 482.957,632.8906 L482.957,635.6094 Q482.332,635.0313 481.7383,634.7656 Q481.1445,634.4844 480.5195,634.4844 Q479.1758,634.4844 478.4883,635.5625 Q477.8008,636.625 477.8008,638.7188 Q477.8008,640.8125 478.4883,641.8906 Q479.1758,642.9531 480.5195,642.9531 Q481.1445,642.9531 481.7383,642.6875 Q482.332,642.4063 482.957,641.8281 L482.957,644.5469 Z " fill="#000000"/><text fill="#000000" font-family="Verdana" font-size="14" lengthAdjust="spacing" textLength="90.583" x="497.4883" y="635.6045">DeviceBuffer</text><text fill="#000000" font-family="Verdana" font-size="14" lengthAdjust="spacing" textLength="48.6309" x="518.4644" y="651.9014">Output</text><line style="stroke:#4169E1;stroke-width:1;" x1="394" x2="664.0596" y1="660.2031" y2="660.2031"/><text fill="#000000" font-family="Verdana" font-size="14" lengthAdjust="spacing" textLength="131.8516" x="399" y="677.1982">format: magnitude</text><line style="stroke:#4169E1;stroke-width:1;" x1="394" x2="664.0596" y1="684.5" y2="684.5"/><text fill="#000000" font-family="Verdana" font-size="14" lengthAdjust="spacing" textLength="260.0596" x="399" y="701.4951">size: (nfft/2+1) * batch * sizeof(float)</text></g><!--class WindowCoef--><g class="entity" data-entity="WindowCoef" data-source-line="54" data-uid="ent0012" id="entity_WindowCoef"><rect fill="#F0F8FF" height="88.8594" rx="2.5" ry="2.5" style="stroke:#4169E1;stroke-width:1;" width="171.4482" x="235.5" y="93.6094"/><ellipse cx="248.9197" cy="113.7422" fill="#FFFFFF" rx="9" ry="9" style="stroke:#000000;stroke-width:1;"/><path d="M251.8884,119.3828 Q251.3103,119.6797 250.6697,119.8203 Q250.0291,119.9766 249.3259,119.9766 Q246.8259,119.9766 245.4978,118.3359 Q244.1853,116.6797 244.1853,113.5547 Q244.1853,110.4297 245.4978,108.7734 Q246.8259,107.1172 249.3259,107.1172 Q250.0291,107.1172 250.6697,107.2734 Q251.3259,107.4297 251.8884,107.7266 L251.8884,110.4453 Q251.2634,109.8672 250.6697,109.6016 Q250.0759,109.3203 249.4509,109.3203 Q248.1072,109.3203 247.4197,110.3984 Q246.7322,111.4609 246.7322,113.5547 Q246.7322,115.6484 247.4197,116.7266 Q248.1072,117.7891 249.4509,117.7891 Q250.0759,117.7891 250.6697,117.5234 Q251.2634,117.2422 251.8884,116.6641 L251.8884,119.3828 Z " fill="#000000"/><text fill="#000000" font-family="Verdana" font-size="12" font-style="italic" lengthAdjust="spacing" textLength="57.9668" x="303.2874" y="109.748">&#171;cached&#187;</text><text fill="#000000" font-family="Verdana" font-size="14" lengthAdjust="spacing" textLength="142.5156" x="261.0129" y="125.5732">Window Coefficients</text><line style="stroke:#4169E1;stroke-width:1;" x1="236.5" x2="405.9482" y1="133.875" y2="133.875"/><text fill="#000000" font-family="Verdana" font-size="14" lengthAdjust="spacing" textLength="131.8037" x="241.5" y="150.8701">precomputed: true</text><line style="stroke:#4169E1;stroke-width:1;" x1="236.5" x2="405.9482" y1="158.1719" y2="158.1719"/><text fill="#000000" font-family="Verdana" font-size="14" lengthAdjust="spacing" textLength="159.4482" x="241.5" y="175.167">size: nfft * sizeof(float)</text></g><!--class WorkArea--><g class="entity" data-entity="WorkArea" data-source-line="59" data-uid="ent0013" id="entity_WorkArea"><rect fill="#F0F8FF" height="76.5938" rx="2.5" ry="2.5" style="stroke:#4169E1;stroke-width:1;" width="172.624" x="27.5" y="99.6094"/><ellipse cx="52.0646" cy="113.6094" fill="#FFFFFF" rx="9" ry="9" style="stroke:#000000;stroke-width:1;"/><path d="M55.0334,119.25 Q54.4553,119.5469 53.8146,119.6875 Q53.174,119.8438 52.4709,119.8438 Q49.9709,119.8438 48.6428,118.2031 Q47.3303,116.5469 47.3303,113.4219 Q47.3303,110.2969 48.6428,108.6406 Q49.9709,106.9844 52.4709,106.9844 Q53.174,106.9844 53.8146,107.1406 Q54.4709,107.2969 55.0334,107.5938 L55.0334,110.3125 Q54.4084,109.7344 53.8146,109.4688 Q53.2209,109.1875 52.5959,109.1875 Q51.2521,109.1875 50.5646,110.2656 Q49.8771,111.3281 49.8771,113.4219 Q49.8771,115.5156 50.5646,116.5938 Q51.2521,117.6563 52.5959,117.6563 Q53.2209,117.6563 53.8146,117.3906 Q54.4084,117.1094 55.0334,116.5313 L55.0334,119.25 Z " fill="#000000"/><text fill="#000000" font-family="Verdana" font-size="14" lengthAdjust="spacing" textLength="118.9248" x="66.6346" y="118.4561">cuFFT Work Area</text><line style="stroke:#4169E1;stroke-width:1;" x1="28.5" x2="199.124" y1="127.6094" y2="127.6094"/><text fill="#000000" font-family="Verdana" font-size="14" lengthAdjust="spacing" textLength="96.1611" x="33.5" y="144.6045">size: dynamic</text><text fill="#000000" font-family="Verdana" font-size="14" lengthAdjust="spacing" textLength="160.624" x="33.5" y="160.9014">managed by: CufftPlan</text><line style="stroke:#4169E1;stroke-width:1;" x1="28.5" x2="199.124" y1="168.2031" y2="168.2031"/></g><!--class H2D--><g class="entity" data-entity="H2D" data-source-line="66" data-uid="ent0015" id="entity_H2D"><rect fill="#F0F8FF" height="44" rx="2.5" ry="2.5" style="stroke:#4169E1;stroke-width:1;" width="133.458" x="877.5" y="824.6094"/><ellipse cx="890.5" cy="838.6094" fill="#FFFFFF" rx="9" ry="9" style="stroke:#000000;stroke-width:1;"/><path d="M893.4688,844.25 Q892.8906,844.5469 892.25,844.6875 Q891.6094,844.8438 890.9063,844.8438 Q888.4063,844.8438 887.0781,843.2031 Q885.7656,841.5469 885.7656,838.4219 Q885.7656,835.2969 887.0781,833.6406 Q888.4063,831.9844 890.9063,831.9844 Q891.6094,831.9844 892.25,832.1406 Q892.9063,832.2969 893.4688,832.5938 L893.4688,835.3125 Q892.8438,834.7344 892.25,834.4688 Q891.6563,834.1875 891.0313,834.1875 Q889.6875,834.1875 889,835.2656 Q888.3125,836.3281 888.3125,838.4219 Q888.3125,840.5156 889,841.5938 Q889.6875,842.6563 891.0313,842.6563 Q891.6563,842.6563 892.25,842.3906 Q892.8438,842.1094 893.4688,841.5313 L893.4688,844.25 Z " fill="#000000"/><text fill="#000000" font-family="Verdana" font-size="14" lengthAdjust="spacing" textLength="105.458" x="902.5" y="843.4561">H2D Stream[0]</text><line style="stroke:#4169E1;stroke-width:1;" x1="878.5" x2="1009.958" y1="852.6094" y2="852.6094"/><line style="stroke:#4169E1;stroke-width:1;" x1="878.5" x2="1009.958" y1="860.6094" y2="860.6094"/></g><!--class D2H--><g class="entity" data-entity="D2H" data-source-line="67" data-uid="ent0016" id="entity_D2H"><rect fill="#F0F8FF" height="44" rx="2.5" ry="2.5" style="stroke:#4169E1;stroke-width:1;" width="133.458" x="1045.5" y="824.6094"/><ellipse cx="1058.5" cy="838.6094" fill="#FFFFFF" rx="9" ry="9" style="stroke:#000000;stroke-width:1;"/><path d="M1061.4688,844.25 Q1060.8906,844.5469 1060.25,844.6875 Q1059.6094,844.8438 1058.9063,844.8438 Q1056.4063,844.8438 1055.0781,843.2031 Q1053.7656,841.5469 1053.7656,838.4219 Q1053.7656,835.2969 1055.0781,833.6406 Q1056.4063,831.9844 1058.9063,831.9844 Q1059.6094,831.9844 1060.25,832.1406 Q1060.9063,832.2969 1061.4688,832.5938 L1061.4688,835.3125 Q1060.8438,834.7344 1060.25,834.4688 Q1059.6563,834.1875 1059.0313,834.1875 Q1057.6875,834.1875 1057,835.2656 Q1056.3125,836.3281 1056.3125,838.4219 Q1056.3125,840.5156 1057,841.5938 Q1057.6875,842.6563 1059.0313,842.6563 Q1059.6563,842.6563 1060.25,842.3906 Q1060.8438,842.1094 1061.4688,841.5313 L1061.4688,844.25 Z " fill="#000000"/><text fill="#000000" font-family="Verdana" font-size="14" lengthAdjust="spacing" textLength="105.458" x="1070.5" y="843.4561">D2H Stream[2]</text><line style="stroke:#4169E1;stroke-width:1;" x1="1046.5" x2="1177.958" y1="852.6094" y2="852.6094"/><line style="stroke:#4169E1;stroke-width:1;" x1="1046.5" x2="1177.958" y1="860.6094" y2="860.6094"/></g><g class="entity" data-entity="GMN27" data-source-line="86" data-uid="ent0028" id="entity_GMN27"><path d="M1562.5,635.6094 L1562.5,691.0078 L1737.4307,691.0078 L1737.4307,645.6094 L1727.4307,635.6094 L1562.5,635.6094" fill="#FFFFFF" style="stroke:#000000;stroke-width:1;"/><path d="M1727.4307,635.6094 L1727.4307,645.6094 L1737.4307,645.6094 L1727.4307,635.6094" fill="#FFFFFF" style="stroke:#000000;stroke-width:1;"/><text fill="#000000" font-family="Verdana" font-size="13" font-weight="bold" lengthAdjust="spacing" textLength="153.9307" x="1568.5" y="652.6763">Page-locked memory</text><text fill="#000000" font-family="Verdana" font-size="13" lengthAdjust="spacing" textLength="125.8232" x="1568.5" y="667.8091">Enables faster PCIe</text><text fill="#000000" font-family="Verdana" font-size="13" lengthAdjust="spacing" textLength="134.1006" x="1568.5" y="682.9419">transfers (~25 GB/s)</text></g><g class="entity" data-entity="GMN30" data-source-line="92" data-uid="ent0031" id="entity_GMN30"><path d="M701.5,635.6094 L701.5,691.0078 A0,0 0 0 0 701.5,691.0078 L874.5073,691.0078 A0,0 0 0 0 874.5073,691.0078 L874.5073,645.6094 L864.5073,635.6094 L750.31,635.6094 L598.02,540.8094 L742.31,635.6094 L701.5,635.6094 A0,0 0 0 0 701.5,635.6094" fill="#FFFFFF" style="stroke:#000000;stroke-width:1;"/><path d="M864.5073,635.6094 L864.5073,645.6094 L874.5073,645.6094 L864.5073,635.6094" fill="#FFFFFF" style="stroke:#000000;stroke-width:1;"/><text fill="#000000" font-family="Verdana" font-size="13" font-weight="bold" lengthAdjust="spacing" textLength="117.0381" x="707.5" y="652.6763">Complex format</text><text fill="#000000" font-family="Verdana" font-size="13" lengthAdjust="spacing" textLength="134.3672" x="707.5" y="667.8091">Hermitian symmetry</text><text fill="#000000" font-family="Verdana" font-size="13" lengthAdjust="spacing" textLength="152.0073" x="707.5" y="682.9419">Only N/2+1 bins stored</text></g><!--link HostInput to Pinned0--><g class="link" data-entity-1="HostInput" data-entity-2="Pinned0" data-source-line="71" data-uid="lnk17" id="link_HostInput_Pinned0"><path codeLine="71" d="M1184,541.0294 C1184,565.1294 1184,588.6994 1184,612.5894" fill="none" id="HostInput-to-Pinned0" style="stroke:#4169E1;stroke-width:1;"/><polygon fill="#4169E1" points="1184,618.5894,1188,609.5894,1184,613.5894,1180,609.5894,1184,618.5894" style="stroke:#4169E1;stroke-width:1;"/><text fill="#000000" font-family="Verdana" font-size="13" lengthAdjust="spacing" textLength="56.418" x="1185" y="583.6763">memcpy</text></g><!--link Pinned0 to H2D--><g class="link" data-entity-1="Pinned0" data-entity-2="H2D" data-source-line="72" data-uid="lnk18" id="link_Pinned0_H2D"><path codeLine="72" d="M1157.36,708.0394 C1143.78,726.4994 1125.56,746.2794 1104,757.6094 C1073.94,773.4094 1058.83,751.3594 1028,765.6094 C999.48,778.7894 978.2767,800.923 963.1267,819.873" fill="none" id="Pinned0-to-H2D" style="stroke:#4169E1;stroke-width:1;"/><polygon fill="#4169E1" points="959.38,824.5594,968.1243,820.0275,962.5022,820.654,961.8757,815.032,959.38,824.5594" style="stroke:#4169E1;stroke-width:1;"/><text fill="#000000" font-family="Verdana" font-size="13" lengthAdjust="spacing" textLength="37.8193" x="1127" y="753.6763">async</text></g><!--link H2D to DevInput0--><g class="link" data-entity-1="H2D" data-entity-2="DevInput0" data-source-line="73" data-uid="lnk19" id="link_H2D_DevInput0"><path codeLine="73" d="M942.98,824.4594 C940.17,782.5394 929.78,686.9494 892,617.6094 C829.3,502.5194 796.22,477.5194 686,406.6094 C636.63,374.8494 581.5131,353.2889 529.5131,337.2389" fill="none" id="H2D-to-DevInput0" style="stroke:#4169E1;stroke-width:1;"/><polygon fill="#4169E1" points="523.78,335.4694,531.2,341.9458,528.5576,336.944,533.5594,334.3016,523.78,335.4694" style="stroke:#4169E1;stroke-width:1;"/><text fill="#000000" font-family="Verdana" font-size="13" lengthAdjust="spacing" textLength="125.3218" x="875" y="583.6763">cudaMemcpyAsync</text></g><!--link DevInput0 to DevInput0--><g class="link" data-entity-1="DevInput0" data-entity-2="DevInput0" data-source-line="75" data-uid="lnk20" id="link_DevInput0_DevInput0"><path codeLine="75" d="M523.62,291.2494 C544.14,293.1594 558.5,298.1094 558.5,306.1094 C558.5,314.1094 550.1142,318.5033 529.5942,320.4133" fill="none" id="DevInput0-to-DevInput0" style="stroke:#4169E1;stroke-width:1;"/><polygon fill="#4169E1" points="523.62,320.9694,532.952,324.118,528.5985,320.506,532.2105,316.1525,523.62,320.9694" style="stroke:#4169E1;stroke-width:1;"/><text fill="#000000" font-family="Verdana" font-size="13" lengthAdjust="spacing" textLength="115.1147" x="564.5" y="310.6763">window (in-place)</text></g><!--link DevInput0 to DevIntermediate--><g class="link" data-entity-1="DevInput0" data-entity-2="DevIntermediate" data-source-line="76" data-uid="lnk21" id="link_DevInput0_DevIntermediate"><path codeLine="76" d="M438.26,351.8994 C456.88,381.3994 477.9479,414.7953 496.5579,444.2853" fill="none" id="DevInput0-to-DevIntermediate" style="stroke:#4169E1;stroke-width:1;"/><polygon fill="#4169E1" points="499.76,449.3594,498.3396,439.6135,497.0916,445.1309,491.5741,443.8829,499.76,449.3594" style="stroke:#4169E1;stroke-width:1;"/><text fill="#000000" font-family="Verdana" font-size="13" lengthAdjust="spacing" textLength="63.5527" x="467" y="394.6763">FFT (R2C)</text></g><!--link DevIntermediate to DevOutput--><g class="link" data-entity-1="DevIntermediate" data-entity-2="DevOutput" data-source-line="77" data-uid="lnk22" id="link_DevIntermediate_DevOutput"><path codeLine="77" d="M528.27,541.0294 C528.41,564.7494 528.5545,587.7595 528.6945,611.4395" fill="none" id="DevIntermediate-to-DevOutput" style="stroke:#4169E1;stroke-width:1;"/><polygon fill="#4169E1" points="528.73,617.4394,532.6767,608.4159,528.7004,612.4395,524.6769,608.4632,528.73,617.4394" style="stroke:#4169E1;stroke-width:1;"/><text fill="#000000" font-family="Verdana" font-size="13" lengthAdjust="spacing" textLength="70.3193" x="530" y="583.6763">magnitude</text></g><!--link DevOutput to D2H--><g class="link" data-entity-1="DevOutput" data-entity-2="D2H" data-source-line="79" data-uid="lnk23" id="link_DevOutput_D2H"><path codeLine="79" d="M616.58,708.6294 C638.15,717.9494 661.51,726.7294 684,732.6094 C832.59,771.4794 888.28,701.8194 1028,765.6094 C1056.58,778.6594 1077.7827,800.8155 1092.9027,819.8055" fill="none" id="DevOutput-to-D2H" style="stroke:#4169E1;stroke-width:1;"/><polygon fill="#4169E1" points="1096.64,824.4994,1094.1633,814.967,1093.5256,820.5878,1087.9048,819.9501,1096.64,824.4994" style="stroke:#4169E1;stroke-width:1;"/><text fill="#000000" font-family="Verdana" font-size="13" lengthAdjust="spacing" textLength="37.8193" x="1005" y="753.6763">async</text></g><!--link D2H to Pinned1--><g class="link" data-entity-1="D2H" data-entity-2="Pinned1" data-source-line="80" data-uid="lnk24" id="link_D2H_Pinned1"><path codeLine="80" d="M1178.7,844.2694 C1328.02,839.7094 1681.85,819.7394 1755,732.6094 C1787.86,693.4694 1784.2,659.5594 1755,617.6094 C1703.4,543.4694 1606.9561,515.3429 1530.2361,504.0529" fill="none" id="D2H-to-Pinned1" style="stroke:#4169E1;stroke-width:1;"/><polygon fill="#4169E1" points="1524.3,503.1794,1532.6217,508.4471,1529.2467,503.9073,1533.7865,500.5323,1524.3,503.1794" style="stroke:#4169E1;stroke-width:1;"/><text fill="#000000" font-family="Verdana" font-size="13" lengthAdjust="spacing" textLength="125.3218" x="1779" y="667.6763">cudaMemcpyAsync</text></g><!--link Pinned1 to HostOutput--><g class="link" data-entity-1="Pinned1" data-entity-2="HostOutput" data-source-line="81" data-uid="lnk25" id="link_Pinned1_HostOutput"><path codeLine="81" d="M1425.69,539.7194 C1424.97,563.6394 1424.2492,587.2421 1423.5292,611.3421" fill="none" id="Pinned1-to-HostOutput" style="stroke:#4169E1;stroke-width:1;"/><polygon fill="#4169E1" points="1423.35,617.3394,1427.617,608.4628,1423.4993,612.3416,1419.6205,608.2239,1423.35,617.3394" style="stroke:#4169E1;stroke-width:1;"/><text fill="#000000" font-family="Verdana" font-size="13" lengthAdjust="spacing" textLength="56.418" x="1425" y="583.6763">memcpy</text></g><!--link WindowCoef to DevInput0--><g class="link" data-entity-1="WindowCoef" data-entity-2="DevInput0" data-source-line="83" data-uid="lnk26" id="link_WindowCoef_DevInput0"><path codeLine="83" d="M344.38,182.7194 C357.21,206.6394 370.2451,230.9513 383.1651,255.0513" fill="none" id="WindowCoef-to-DevInput0" style="stroke:#4169E1;stroke-width:1;"/><polygon fill="#4169E1" points="386,260.3394,385.273,250.5174,383.6376,255.9327,378.2223,254.2973,386,260.3394" style="stroke:#4169E1;stroke-width:1;"/><text fill="#000000" font-family="Verdana" font-size="13" lengthAdjust="spacing" textLength="121.0562" x="370" y="226.6763">element-wise mult</text></g><!--link Pinned0 to GMN27--><g class="link" data-entity-1="Pinned0" data-entity-2="GMN27" data-source-line="86" data-uid="lnk29" id="link_Pinned0_GMN27"><path d="M1238.93,618.4594 C1261.55,602.7894 1288.9,587.1194 1316.5,579.1094 C1406.13,553.0894 1437.3,551.6494 1526.5,579.1094 C1562.19,590.0994 1596.8,615.2994 1620.26,635.2494" fill="none" id="Pinned0-GMN27" style="stroke:#4169E1;stroke-width:1;stroke-dasharray:7.0,7.0;"/></g><g class="footer" data-source-line="9"><text fill="#000000" font-family="Verdana" font-size="10" lengthAdjust="spacing" textLength="213.7549" x="844.7834" y="904.8916">IEEE Publication Quality Diagram - &#169; 2025</text></g><!--SRC=[jLN1Zjis4BthAwREeROB8xQwIRj6i43MbkezRECs0N9eUg2baKsiI0ea5LSjql_fR_JBEgIabMmvsHvQ68QbcUTvmvatmw_i0GL2aJCk0_F0PS4q4x1ZoSDUgrAcAvKh3S_Yo7rwY2HdnjmEOFFu-pWUm9HEKJUGgyNBwsZHWnGKXErn42jw6Nzx4ejfhOwdKGBBROvmfwGoA0t2Phk26ToZKBg2UoOfi41fuRLE3jnYOakDGQQKHGrtKHJ1jjpbF66MAma_bIpdje8rPtj7E8E__u9m7hu8WYP966sKiMtyjsJ54JoxdaVHzHp-2A0-BupkP55Qk2sp3FK7ESvonUnqCW9cm0MetGuFOFZlk0IPPHQcL7UR7BmvPvKgxHAuf5HpP1yn9Vid-dOiRqhxHPh6t-SPEwBduJUBoKKsmVQIsp95C0KLIvTYGBhbKcBgmjUylyn_zOIrVGwlNXLKg5ckaWTCRsw-VCgYr0LrRWcfeZuWx7n8BlTFqoxwj8l_alPJhzrh_CWJF6zu7A-_cvyqlCOzLkI3z2ts6PBBlym_cnFzEgFAwWvEQfZLF6s0WsgSq2qkqYt-9ph7HP8Kc79ciQFiR4y8xem-hFapfGKZ1IPA53d-1kEVmnKeB-394_dKCcyp-LUYlrY2DeN78HZmlkSoLKTOASmodd1QBCRJrdPd9XqcB3byJe93qaAZEt9fCLq23ToGD2dZ-1syL_g1jXYocf3UtCi9Hrf99dZYBSAllXHsrH9ML2UxpPaSg7kxkaDufvaqLCWHvUwV2wKjfKygZwwYgxxAD-4QtbhY5UtKawNNbd3JkiFQJHP7-3MicML0npu6tVwRpMuUjmPL7KLIL45hS4v7jwGmbKm2z-nitJIHLigKtVk_lVQOe7EUGuzrvyPSpkYkIt1o2TkJy19SqPq86sJFr-0ReVNr4dHc3w9wjFcxv-x0YmlPjnv_ycvxFrOcwAdi_7YO-sjkTkHq1ueojq4WwOu3pVS72ofhwqozcawttQ9qiMcnJQVaY2IZNMWWOyRTZauRPBMDEWoC_mnVm0-tpyqaG9c2Yz-mx9IrIZYQir9vkbKpqVLuUQeD8RZbJ8AfX42hApA-aNa5FxenXHsNXZQIqdJfjLp_0000]--></g></svg>