<svg xmlns="http://www.w3.org/2000/svg" xmlns:xlink="http://www.w3.org/1999/xlink" contentStyleType="text/css" data-diagram-type="DESCRIPTION" height="987px" preserveAspectRatio="none" style="width:2160px;height:987px;background:#FEFEFE;" version="1.1" viewBox="0 0 2160 987" width="2160px" zoomAndPan="magnify"><title>Ionosense HPC - Component Architecture</title><defs/><g><rect fill="#FEFEFE" height="987" style="stroke:none;stroke-width:1;" width="2160" x="0" y="0"/><g class="title" data-source-line="10"><text fill="#000000" font-family="Verdana" font-size="22" font-weight="bold" lengthAdjust="spacing" textLength="512.5742" x="819.2129" y="35.4209">Ionosense HPC - Component Architecture</text></g><!--cluster Python Bindings Layer--><g class="cluster" data-entity="Python Bindings Layer" data-source-line="13" data-uid="ent0002" id="cluster_Python Bindings Layer"><path d="M847.5,144.6094 L1026.3506,144.6094 A3.75,3.75 0 0 1 1028.8506,147.1094 L1035.8506,166.9063 L1044.5,166.9063 A2.5,2.5 0 0 1 1047,169.4063 L1047,362.1094 A2.5,2.5 0 0 1 1044.5,364.6094 L847.5,364.6094 A2.5,2.5 0 0 1 845,362.1094 L845,147.1094 A2.5,2.5 0 0 1 847.5,144.6094" fill="#FFE6E6" style="stroke:#4169E1;stroke-width:1;"/><line style="stroke:#4169E1;stroke-width:1;" x1="845" x2="1035.8506" y1="166.9063" y2="166.9063"/><text fill="#000000" font-family="Verdana" font-size="14" font-weight="bold" lengthAdjust="spacing" textLength="177.8506" x="849" y="159.6045">Python Bindings Layer</text></g><!--cluster C++ Public API--><g class="cluster" data-entity="C++ Public API" data-source-line="18" data-uid="ent0005" id="cluster_C++ Public API"><path d="M554.5,413.6094 L673.4336,413.6094 A3.75,3.75 0 0 1 675.9336,416.1094 L682.9336,435.9063 L1036.5,435.9063 A2.5,2.5 0 0 1 1039,438.4063 L1039,652.1094 A2.5,2.5 0 0 1 1036.5,654.6094 L554.5,654.6094 A2.5,2.5 0 0 1 552,652.1094 L552,416.1094 A2.5,2.5 0 0 1 554.5,413.6094" fill="#E6F3FF" style="stroke:#4169E1;stroke-width:1;"/><line style="stroke:#4169E1;stroke-width:1;" x1="552" x2="682.9336" y1="435.9063" y2="435.9063"/><text fill="#000000" font-family="Verdana" font-size="14" font-weight="bold" lengthAdjust="spacing" textLength="117.9336" x="556" y="428.6045">C++ Public API</text></g><!--cluster Processing Pipeline--><g class="cluster" data-entity="Processing Pipeline" data-source-line="25" data-uid="ent0010" id="cluster_Processing Pipeline"><path d="M19.5,413.6094 L175.04,413.6094 A3.75,3.75 0 0 1 177.54,416.1094 L184.54,435.9063 L525.5,435.9063 A2.5,2.5 0 0 1 528,438.4063 L528,652.1094 A2.5,2.5 0 0 1 525.5,654.6094 L19.5,654.6094 A2.5,2.5 0 0 1 17,652.1094 L17,416.1094 A2.5,2.5 0 0 1 19.5,413.6094" fill="#E6F3FF" style="stroke:#4169E1;stroke-width:1;"/><line style="stroke:#4169E1;stroke-width:1;" x1="17" x2="184.54" y1="435.9063" y2="435.9063"/><text fill="#000000" font-family="Verdana" font-size="14" font-weight="bold" lengthAdjust="spacing" textLength="154.54" x="21" y="428.6045">Processing Pipeline</text></g><!--cluster CUDA Resource Management--><g class="cluster" data-entity="CUDA Resource Management" data-source-line="32" data-uid="ent0015" id="cluster_CUDA Resource Management"><path d="M984.5,728.1094 L1215.29,728.1094 A3.75,3.75 0 0 1 1217.79,730.6094 L1224.79,750.4063 L1792.5,750.4063 A2.5,2.5 0 0 1 1795,752.9063 L1795,822.6094 A2.5,2.5 0 0 1 1792.5,825.1094 L984.5,825.1094 A2.5,2.5 0 0 1 982,822.6094 L982,730.6094 A2.5,2.5 0 0 1 984.5,728.1094" fill="#D4E6FF" style="stroke:#4169E1;stroke-width:1;"/><line style="stroke:#4169E1;stroke-width:1;" x1="982" x2="1224.79" y1="750.4063" y2="750.4063"/><text fill="#000000" font-family="Verdana" font-size="14" font-weight="bold" lengthAdjust="spacing" textLength="229.79" x="986" y="743.1045">CUDA Resource Management</text></g><!--cluster CUDA Kernels--><g class="cluster" data-entity="CUDA Kernels" data-source-line="40" data-uid="ent0021" id="cluster_CUDA Kernels"><path d="M13.5,703.6094 L123.3145,703.6094 A3.75,3.75 0 0 1 125.8145,706.1094 L132.8145,725.9063 L556.5,725.9063 A2.5,2.5 0 0 1 559,728.4063 L559,831.1094 A2.5,2.5 0 0 1 556.5,833.6094 L13.5,833.6094 A2.5,2.5 0 0 1 11,831.1094 L11,706.1094 A2.5,2.5 0 0 1 13.5,703.6094" fill="#FFE4B5" style="stroke:#4169E1;stroke-width:1;"/><line style="stroke:#4169E1;stroke-width:1;" x1="11" x2="132.8145" y1="725.9063" y2="725.9063"/><text fill="#000000" font-family="Verdana" font-size="14" font-weight="bold" lengthAdjust="spacing" textLength="108.8145" x="15" y="718.6045">CUDA Kernels</text><text fill="#000000" font-family="Verdana" font-size="14" font-style="italic" lengthAdjust="spacing" textLength="65.1602" x="256.4199" y="740.9014">&#171;Device&#187;</text></g><!--cluster Profiling & Debug--><g class="cluster" data-entity="Profiling &amp; Debug" data-source-line="46" data-uid="ent0025" id="cluster_Profiling &amp; Debug"><path d="M1763.5,557.6094 L1904.8418,557.6094 A3.75,3.75 0 0 1 1907.3418,560.1094 L1914.3418,579.9063 L2150.5,579.9063 A2.5,2.5 0 0 1 2153,582.4063 L2153,652.1094 A2.5,2.5 0 0 1 2150.5,654.6094 L1763.5,654.6094 A2.5,2.5 0 0 1 1761,652.1094 L1761,560.1094 A2.5,2.5 0 0 1 1763.5,557.6094" fill="#F0E6FF" style="stroke:#4169E1;stroke-width:1;"/><line style="stroke:#4169E1;stroke-width:1;" x1="1761" x2="1914.3418" y1="579.9063" y2="579.9063"/><text fill="#000000" font-family="Verdana" font-size="14" font-weight="bold" lengthAdjust="spacing" textLength="140.3418" x="1765" y="572.6045">Profiling &amp; Debug</text></g><!--entity PyEngine--><g class="entity" data-entity="PyEngine" data-source-line="14" data-uid="ent0003" id="entity_PyEngine"><rect fill="#F0F8FF" height="46.2969" rx="2.5" ry="2.5" style="stroke:#4169E1;stroke-width:1;" width="169.8623" x="861" y="179.6094"/><rect fill="#F0F8FF" height="10" style="stroke:#4169E1;stroke-width:1;" width="15" x="1010.8623" y="184.6094"/><rect fill="#F0F8FF" height="2" style="stroke:#4169E1;stroke-width:1;" width="4" x="1008.8623" y="186.6094"/><rect fill="#F0F8FF" height="2" style="stroke:#4169E1;stroke-width:1;" width="4" x="1008.8623" y="190.6094"/><text fill="#000000" font-family="Verdana" font-size="14" lengthAdjust="spacing" textLength="129.8623" x="876" y="212.6045">PyResearchEngine</text></g><!--entity PyBind--><g class="entity" data-entity="PyBind" data-source-line="15" data-uid="ent0004" id="entity_PyBind"><rect fill="#F0F8FF" height="46.2969" rx="2.5" ry="2.5" style="stroke:#4169E1;stroke-width:1;" width="160.8799" x="865.5" y="302.6094"/><rect fill="#F0F8FF" height="10" style="stroke:#4169E1;stroke-width:1;" width="15" x="1006.3799" y="307.6094"/><rect fill="#F0F8FF" height="2" style="stroke:#4169E1;stroke-width:1;" width="4" x="1004.3799" y="309.6094"/><rect fill="#F0F8FF" height="2" style="stroke:#4169E1;stroke-width:1;" width="4" x="1004.3799" y="313.6094"/><text fill="#000000" font-family="Verdana" font-size="14" lengthAdjust="spacing" textLength="120.8799" x="880.5" y="335.6045">pybind11 Module</text></g><!--entity Engine--><g class="entity" data-entity="Engine" data-source-line="19" data-uid="ent0006" id="entity_Engine"><rect fill="#F0F8FF" height="46.2969" rx="2.5" ry="2.5" style="stroke:#4169E1;stroke-width:1;" width="153.1348" x="869.5" y="448.6094"/><rect fill="#F0F8FF" height="10" style="stroke:#4169E1;stroke-width:1;" width="15" x="1002.6348" y="453.6094"/><rect fill="#F0F8FF" height="2" style="stroke:#4169E1;stroke-width:1;" width="4" x="1000.6348" y="455.6094"/><rect fill="#F0F8FF" height="2" style="stroke:#4169E1;stroke-width:1;" width="4" x="1000.6348" y="459.6094"/><text fill="#000000" font-family="Verdana" font-size="14" lengthAdjust="spacing" textLength="113.1348" x="884.5" y="481.6045">ResearchEngine</text></g><!--entity Factory--><g class="entity" data-entity="Factory" data-source-line="20" data-uid="ent0007" id="entity_Factory"><rect fill="#F0F8FF" height="46.2969" rx="2.5" ry="2.5" style="stroke:#4169E1;stroke-width:1;" width="144.8564" x="707.5" y="592.6094"/><rect fill="#F0F8FF" height="10" style="stroke:#4169E1;stroke-width:1;" width="15" x="832.3564" y="597.6094"/><rect fill="#F0F8FF" height="2" style="stroke:#4169E1;stroke-width:1;" width="4" x="830.3564" y="599.6094"/><rect fill="#F0F8FF" height="2" style="stroke:#4169E1;stroke-width:1;" width="4" x="830.3564" y="603.6094"/><text fill="#000000" font-family="Verdana" font-size="14" lengthAdjust="spacing" textLength="104.8564" x="722.5" y="625.6045">Engine Factory</text></g><!--entity Config--><g class="entity" data-entity="Config" data-source-line="21" data-uid="ent0008" id="entity_Config"><rect fill="#F0F8FF" height="46.2969" rx="2.5" ry="2.5" style="stroke:#4169E1;stroke-width:1;" width="134.9443" x="887.5" y="592.6094"/><rect fill="#F0F8FF" height="10" style="stroke:#4169E1;stroke-width:1;" width="15" x="1002.4443" y="597.6094"/><rect fill="#F0F8FF" height="2" style="stroke:#4169E1;stroke-width:1;" width="4" x="1000.4443" y="599.6094"/><rect fill="#F0F8FF" height="2" style="stroke:#4169E1;stroke-width:1;" width="4" x="1000.4443" y="603.6094"/><text fill="#000000" font-family="Verdana" font-size="14" lengthAdjust="spacing" textLength="94.9443" x="902.5" y="625.6045">Configuration</text></g><!--entity Stats--><g class="entity" data-entity="Stats" data-source-line="22" data-uid="ent0009" id="entity_Stats"><rect fill="#F0F8FF" height="46.2969" rx="2.5" ry="2.5" style="stroke:#4169E1;stroke-width:1;" width="103.998" x="568" y="592.6094"/><rect fill="#F0F8FF" height="10" style="stroke:#4169E1;stroke-width:1;" width="15" x="651.998" y="597.6094"/><rect fill="#F0F8FF" height="2" style="stroke:#4169E1;stroke-width:1;" width="4" x="649.998" y="599.6094"/><rect fill="#F0F8FF" height="2" style="stroke:#4169E1;stroke-width:1;" width="4" x="649.998" y="603.6094"/><text fill="#000000" font-family="Verdana" font-size="14" lengthAdjust="spacing" textLength="63.998" x="583" y="625.6045">Statistics</text></g><!--entity Window--><g class="entity" data-entity="Window" data-source-line="26" data-uid="ent0011" id="entity_Window"><rect fill="#F0F8FF" height="46.2969" rx="2.5" ry="2.5" style="stroke:#4169E1;stroke-width:1;" width="140.4131" x="178" y="592.6094"/><rect fill="#F0F8FF" height="10" style="stroke:#4169E1;stroke-width:1;" width="15" x="298.4131" y="597.6094"/><rect fill="#F0F8FF" height="2" style="stroke:#4169E1;stroke-width:1;" width="4" x="296.4131" y="599.6094"/><rect fill="#F0F8FF" height="2" style="stroke:#4169E1;stroke-width:1;" width="4" x="296.4131" y="603.6094"/><text fill="#000000" font-family="Verdana" font-size="14" lengthAdjust="spacing" textLength="100.4131" x="193" y="625.6045">Window Stage</text></g><!--entity FFT--><g class="entity" data-entity="FFT" data-source-line="27" data-uid="ent0012" id="entity_FFT"><rect fill="#F0F8FF" height="46.2969" rx="2.5" ry="2.5" style="stroke:#4169E1;stroke-width:1;" width="109.5625" x="33" y="592.6094"/><rect fill="#F0F8FF" height="10" style="stroke:#4169E1;stroke-width:1;" width="15" x="122.5625" y="597.6094"/><rect fill="#F0F8FF" height="2" style="stroke:#4169E1;stroke-width:1;" width="4" x="120.5625" y="599.6094"/><rect fill="#F0F8FF" height="2" style="stroke:#4169E1;stroke-width:1;" width="4" x="120.5625" y="603.6094"/><text fill="#000000" font-family="Verdana" font-size="14" lengthAdjust="spacing" textLength="69.5625" x="48" y="625.6045">FFT Stage</text></g><!--entity Magnitude--><g class="entity" data-entity="Magnitude" data-source-line="28" data-uid="ent0013" id="entity_Magnitude"><rect fill="#F0F8FF" height="46.2969" rx="2.5" ry="2.5" style="stroke:#4169E1;stroke-width:1;" width="159.0752" x="353.5" y="592.6094"/><rect fill="#F0F8FF" height="10" style="stroke:#4169E1;stroke-width:1;" width="15" x="492.5752" y="597.6094"/><rect fill="#F0F8FF" height="2" style="stroke:#4169E1;stroke-width:1;" width="4" x="490.5752" y="599.6094"/><rect fill="#F0F8FF" height="2" style="stroke:#4169E1;stroke-width:1;" width="4" x="490.5752" y="603.6094"/><text fill="#000000" font-family="Verdana" font-size="14" lengthAdjust="spacing" textLength="119.0752" x="368.5" y="625.6045">Magnitude Stage</text></g><!--entity StageFactory--><g class="entity" data-entity="StageFactory" data-source-line="29" data-uid="ent0014" id="entity_StageFactory"><rect fill="#F0F8FF" height="46.2969" rx="2.5" ry="2.5" style="stroke:#4169E1;stroke-width:1;" width="137.3301" x="117.5" y="448.6094"/><rect fill="#F0F8FF" height="10" style="stroke:#4169E1;stroke-width:1;" width="15" x="234.8301" y="453.6094"/><rect fill="#F0F8FF" height="2" style="stroke:#4169E1;stroke-width:1;" width="4" x="232.8301" y="455.6094"/><rect fill="#F0F8FF" height="2" style="stroke:#4169E1;stroke-width:1;" width="4" x="232.8301" y="459.6094"/><text fill="#000000" font-family="Verdana" font-size="14" lengthAdjust="spacing" textLength="97.3301" x="132.5" y="481.6045">Stage Factory</text></g><!--entity Stream--><g class="entity" data-entity="Stream" data-source-line="33" data-uid="ent0016" id="entity_Stream"><rect fill="#F0F8FF" height="46.2969" rx="2.5" ry="2.5" style="stroke:#4169E1;stroke-width:1;" width="127.0762" x="1303.5" y="763.1094"/><rect fill="#F0F8FF" height="10" style="stroke:#4169E1;stroke-width:1;" width="15" x="1410.5762" y="768.1094"/><rect fill="#F0F8FF" height="2" style="stroke:#4169E1;stroke-width:1;" width="4" x="1408.5762" y="770.1094"/><rect fill="#F0F8FF" height="2" style="stroke:#4169E1;stroke-width:1;" width="4" x="1408.5762" y="774.1094"/><text fill="#000000" font-family="Verdana" font-size="14" lengthAdjust="spacing" textLength="87.0762" x="1318.5" y="796.1045">CudaStream</text></g><!--entity Event--><g class="entity" data-entity="Event" data-source-line="34" data-uid="ent0017" id="entity_Event"><rect fill="#F0F8FF" height="46.2969" rx="2.5" ry="2.5" style="stroke:#4169E1;stroke-width:1;" width="116.2207" x="1466" y="763.1094"/><rect fill="#F0F8FF" height="10" style="stroke:#4169E1;stroke-width:1;" width="15" x="1562.2207" y="768.1094"/><rect fill="#F0F8FF" height="2" style="stroke:#4169E1;stroke-width:1;" width="4" x="1560.2207" y="770.1094"/><rect fill="#F0F8FF" height="2" style="stroke:#4169E1;stroke-width:1;" width="4" x="1560.2207" y="774.1094"/><text fill="#000000" font-family="Verdana" font-size="14" lengthAdjust="spacing" textLength="76.2207" x="1481" y="796.1045">CudaEvent</text></g><!--entity DevBuf--><g class="entity" data-entity="DevBuf" data-source-line="35" data-uid="ent0018" id="entity_DevBuf"><rect fill="#F0F8FF" height="46.2969" rx="2.5" ry="2.5" style="stroke:#4169E1;stroke-width:1;" width="130.583" x="1137.5" y="763.1094"/><rect fill="#F0F8FF" height="10" style="stroke:#4169E1;stroke-width:1;" width="15" x="1248.083" y="768.1094"/><rect fill="#F0F8FF" height="2" style="stroke:#4169E1;stroke-width:1;" width="4" x="1246.083" y="770.1094"/><rect fill="#F0F8FF" height="2" style="stroke:#4169E1;stroke-width:1;" width="4" x="1246.083" y="774.1094"/><text fill="#000000" font-family="Verdana" font-size="14" lengthAdjust="spacing" textLength="90.583" x="1152.5" y="796.1045">DeviceBuffer</text></g><!--entity PinBuf--><g class="entity" data-entity="PinBuf" data-source-line="36" data-uid="ent0019" id="entity_PinBuf"><rect fill="#F0F8FF" height="46.2969" rx="2.5" ry="2.5" style="stroke:#4169E1;stroke-width:1;" width="162.1582" x="1617" y="763.1094"/><rect fill="#F0F8FF" height="10" style="stroke:#4169E1;stroke-width:1;" width="15" x="1759.1582" y="768.1094"/><rect fill="#F0F8FF" height="2" style="stroke:#4169E1;stroke-width:1;" width="4" x="1757.1582" y="770.1094"/><rect fill="#F0F8FF" height="2" style="stroke:#4169E1;stroke-width:1;" width="4" x="1757.1582" y="774.1094"/><text fill="#000000" font-family="Verdana" font-size="14" lengthAdjust="spacing" textLength="122.1582" x="1632" y="796.1045">PinnedHostBuffer</text></g><!--entity Plan--><g class="entity" data-entity="Plan" data-source-line="37" data-uid="ent0020" id="entity_Plan"><rect fill="#F0F8FF" height="46.2969" rx="2.5" ry="2.5" style="stroke:#4169E1;stroke-width:1;" width="103.7793" x="998" y="763.1094"/><rect fill="#F0F8FF" height="10" style="stroke:#4169E1;stroke-width:1;" width="15" x="1081.7793" y="768.1094"/><rect fill="#F0F8FF" height="2" style="stroke:#4169E1;stroke-width:1;" width="4" x="1079.7793" y="770.1094"/><rect fill="#F0F8FF" height="2" style="stroke:#4169E1;stroke-width:1;" width="4" x="1079.7793" y="774.1094"/><text fill="#000000" font-family="Verdana" font-size="14" lengthAdjust="spacing" textLength="63.7793" x="1013" y="796.1045">CufftPlan</text></g><!--entity WinKern--><g class="entity" data-entity="WinKern" data-source-line="41" data-uid="ent0022" id="entity_WinKern"><rect fill="#F0F8FF" height="46.2969" rx="2.5" ry="2.5" style="stroke:#4169E1;stroke-width:1;" width="152.1777" x="184" y="763.1094"/><rect fill="#F0F8FF" height="10" style="stroke:#4169E1;stroke-width:1;" width="15" x="316.1777" y="768.1094"/><rect fill="#F0F8FF" height="2" style="stroke:#4169E1;stroke-width:1;" width="4" x="314.1777" y="770.1094"/><rect fill="#F0F8FF" height="2" style="stroke:#4169E1;stroke-width:1;" width="4" x="314.1777" y="774.1094"/><text fill="#000000" font-family="Verdana" font-size="14" lengthAdjust="spacing" textLength="112.1777" x="199" y="796.1045">Window Kernels</text></g><!--entity FFTKern--><g class="entity" data-entity="FFTKern" data-source-line="42" data-uid="ent0023" id="entity_FFTKern"><rect fill="#F0F8FF" height="62.5938" rx="2.5" ry="2.5" style="stroke:#4169E1;stroke-width:1;" width="121.3271" x="27.5" y="754.6094"/><rect fill="#F0F8FF" height="10" style="stroke:#4169E1;stroke-width:1;" width="15" x="128.8271" y="759.6094"/><rect fill="#F0F8FF" height="2" style="stroke:#4169E1;stroke-width:1;" width="4" x="126.8271" y="761.6094"/><rect fill="#F0F8FF" height="2" style="stroke:#4169E1;stroke-width:1;" width="4" x="126.8271" y="765.6094"/><text fill="#000000" font-family="Verdana" font-size="14" lengthAdjust="spacing" textLength="81.3271" x="42.5" y="787.6045">FFT Kernels</text><text fill="#000000" font-family="Verdana" font-size="14" lengthAdjust="spacing" textLength="52.1514" x="42.5" y="803.9014">(cuFFT)</text></g><!--entity MagKern--><g class="entity" data-entity="MagKern" data-source-line="43" data-uid="ent0024" id="entity_MagKern"><rect fill="#F0F8FF" height="46.2969" rx="2.5" ry="2.5" style="stroke:#4169E1;stroke-width:1;" width="170.8398" x="371.5" y="763.1094"/><rect fill="#F0F8FF" height="10" style="stroke:#4169E1;stroke-width:1;" width="15" x="522.3398" y="768.1094"/><rect fill="#F0F8FF" height="2" style="stroke:#4169E1;stroke-width:1;" width="4" x="520.3398" y="770.1094"/><rect fill="#F0F8FF" height="2" style="stroke:#4169E1;stroke-width:1;" width="4" x="520.3398" y="774.1094"/><text fill="#000000" font-family="Verdana" font-size="14" lengthAdjust="spacing" textLength="130.8398" x="386.5" y="796.1045">Magnitude Kernels</text></g><!--entity NVTX--><g class="entity" data-entity="NVTX" data-source-line="47" data-uid="ent0026" id="entity_NVTX"><rect fill="#F0F8FF" height="46.2969" rx="2.5" ry="2.5" style="stroke:#4169E1;stroke-width:1;" width="139.7637" x="1777" y="592.6094"/><rect fill="#F0F8FF" height="10" style="stroke:#4169E1;stroke-width:1;" width="15" x="1896.7637" y="597.6094"/><rect fill="#F0F8FF" height="2" style="stroke:#4169E1;stroke-width:1;" width="4" x="1894.7637" y="599.6094"/><rect fill="#F0F8FF" height="2" style="stroke:#4169E1;stroke-width:1;" width="4" x="1894.7637" y="603.6094"/><text fill="#000000" font-family="Verdana" font-size="14" lengthAdjust="spacing" textLength="99.7637" x="1792" y="625.6045">NVTX Profiling</text></g><!--entity Metrics--><g class="entity" data-entity="Metrics" data-source-line="48" data-uid="ent0027" id="entity_Metrics"><rect fill="#F0F8FF" height="46.2969" rx="2.5" ry="2.5" style="stroke:#4169E1;stroke-width:1;" width="184.7305" x="1952.5" y="592.6094"/><rect fill="#F0F8FF" height="10" style="stroke:#4169E1;stroke-width:1;" width="15" x="2117.2305" y="597.6094"/><rect fill="#F0F8FF" height="2" style="stroke:#4169E1;stroke-width:1;" width="4" x="2115.2305" y="599.6094"/><rect fill="#F0F8FF" height="2" style="stroke:#4169E1;stroke-width:1;" width="4" x="2115.2305" y="603.6094"/><text fill="#000000" font-family="Verdana" font-size="14" lengthAdjust="spacing" textLength="144.7305" x="1967.5" y="625.6045">Performance Metrics</text></g><!--entity GPU--><g class="entity" data-entity="GPU" data-source-line="51" data-uid="ent0028" id="entity_GPU"><path d="M1281.5,906.6094 C1281.5,896.6094 1336.9624,896.6094 1336.9624,896.6094 C1336.9624,896.6094 1392.4248,896.6094 1392.4248,906.6094 L1392.4248,931.9063 C1392.4248,941.9063 1336.9624,941.9063 1336.9624,941.9063 C1336.9624,941.9063 1281.5,941.9063 1281.5,931.9063 L1281.5,906.6094" fill="#FFD700" style="stroke:#000000;stroke-width:1;"/><path d="M1281.5,906.6094 C1281.5,916.6094 1336.9624,916.6094 1336.9624,916.6094 C1336.9624,916.6094 1392.4248,916.6094 1392.4248,906.6094" fill="none" style="stroke:#000000;stroke-width:1;"/><text fill="#000000" font-family="Verdana" font-size="14" lengthAdjust="spacing" textLength="90.9248" x="1291.5" y="933.6045">GPU Memory</text></g><!--entity Host--><g class="entity" data-entity="Host" data-source-line="52" data-uid="ent0029" id="entity_Host"><path d="M1651.5,906.6094 C1651.5,896.6094 1708.1313,896.6094 1708.1313,896.6094 C1708.1313,896.6094 1764.7627,896.6094 1764.7627,906.6094 L1764.7627,931.9063 C1764.7627,941.9063 1708.1313,941.9063 1708.1313,941.9063 C1708.1313,941.9063 1651.5,941.9063 1651.5,931.9063 L1651.5,906.6094" fill="#90EE90" style="stroke:#000000;stroke-width:1;"/><path d="M1651.5,906.6094 C1651.5,916.6094 1708.1313,916.6094 1708.1313,916.6094 C1708.1313,916.6094 1764.7627,916.6094 1764.7627,906.6094" fill="none" style="stroke:#000000;stroke-width:1;"/><text fill="#000000" font-family="Verdana" font-size="14" lengthAdjust="spacing" textLength="93.2627" x="1661.5" y="933.6045">Host Memory</text></g><g class="entity" data-entity="GMN57" data-source-line="92" data-uid="ent0058" id="entity_GMN57"><path d="M849,57.6094 L849,97.875 A0,0 0 0 0 849,97.875 L942,97.875 L946,179.1894 L950,97.875 L1042.5166,97.875 A0,0 0 0 0 1042.5166,97.875 L1042.5166,67.6094 L1032.5166,57.6094 L849,57.6094 A0,0 0 0 0 849,57.6094" fill="#FFFACD" style="stroke:#000000;stroke-width:1;"/><path d="M1032.5166,57.6094 L1032.5166,67.6094 L1042.5166,67.6094 L1032.5166,57.6094" fill="#FFFACD" style="stroke:#000000;stroke-width:1;"/><text fill="#000000" font-family="Verdana" font-size="13" lengthAdjust="spacing" textLength="172.5166" x="855" y="74.6763">Python interface providing</text><text fill="#000000" font-family="Verdana" font-size="13" lengthAdjust="spacing" textLength="159.6943" x="855" y="89.8091">NumPy array conversion</text></g><g class="entity" data-entity="GMN60" data-source-line="97" data-uid="ent0061" id="entity_GMN60"><path d="M1427.5,899.1094 L1427.5,915.1094 L1392.64,919.1094 L1427.5,923.1094 L1427.5,939.375 A0,0 0 0 0 1427.5,939.375 L1616.8779,939.375 A0,0 0 0 0 1616.8779,939.375 L1616.8779,909.1094 L1606.8779,899.1094 L1427.5,899.1094 A0,0 0 0 0 1427.5,899.1094" fill="#FFFACD" style="stroke:#000000;stroke-width:1;"/><path d="M1606.8779,899.1094 L1606.8779,909.1094 L1616.8779,909.1094 L1606.8779,899.1094" fill="#FFFACD" style="stroke:#000000;stroke-width:1;"/><text fill="#000000" font-family="Verdana" font-size="13" lengthAdjust="spacing" textLength="168.3779" x="1433.5" y="916.1763">Device memory managed</text><text fill="#000000" font-family="Verdana" font-size="13" lengthAdjust="spacing" textLength="113.6929" x="1433.5" y="931.3091">via RAII wrappers</text></g><g class="entity" data-entity="GMN63" data-source-line="102" data-uid="ent0064" id="entity_GMN63"><path d="M1057.5,595.6094 L1057.5,635.875 L1210.8867,635.875 L1210.8867,605.6094 L1200.8867,595.6094 L1057.5,595.6094" fill="#FFFACD" style="stroke:#000000;stroke-width:1;"/><path d="M1200.8867,595.6094 L1200.8867,605.6094 L1210.8867,605.6094 L1200.8867,595.6094" fill="#FFFACD" style="stroke:#000000;stroke-width:1;"/><text fill="#000000" font-family="Verdana" font-size="13" lengthAdjust="spacing" textLength="115.21" x="1063.5" y="612.6763">Pimpl idiom hides</text><text fill="#000000" font-family="Verdana" font-size="13" lengthAdjust="spacing" textLength="132.3867" x="1063.5" y="627.8091">CUDA dependencies</text></g><!--link PyEngine to PyBind--><g class="link" data-entity-1="PyEngine" data-entity-2="PyBind" data-source-line="55" data-uid="lnk30" id="link_PyEngine_PyBind"><path d="M946,225.7994 C946,247.6394 946,274.7694 946,296.5594" fill="none" id="PyEngine-to-PyBind" style="stroke:#4169E1;stroke-width:1;"/><polygon fill="#4169E1" points="946,302.5594,950,293.5594,946,297.5594,942,293.5594,946,302.5594" style="stroke:#4169E1;stroke-width:1;"/><text fill="#000000" font-family="Verdana" font-size="13" lengthAdjust="spacing" textLength="38.9683" x="947" y="268.6763">wraps</text></g><!--link PyBind to Engine--><g class="link" data-entity-1="PyBind" data-entity-2="Engine" data-source-line="56" data-uid="lnk31" id="link_PyBind_Engine"><path d="M946,348.7894 C946,375.7794 946,415.0594 946,442.1594" fill="none" id="PyBind-to-Engine" style="stroke:#4169E1;stroke-width:1;"/><polygon fill="#4169E1" points="946,448.1594,950,439.1594,946,443.1594,942,439.1594,946,448.1594" style="stroke:#4169E1;stroke-width:1;"/><text fill="#000000" font-family="Verdana" font-size="13" lengthAdjust="spacing" textLength="35.1279" x="947" y="393.6763">binds</text></g><!--link Engine to Factory--><g class="link" data-entity-1="Engine" data-entity-2="Factory" data-source-line="58" data-uid="lnk32" id="link_Engine_Factory"><path d="M920.06,494.7994 C888.88,521.4694 841.419,562.0686 810.319,588.6786" fill="none" id="Engine-to-Factory" style="stroke:#4169E1;stroke-width:1;"/><polygon fill="#4169E1" points="805.76,592.5794,815.1989,589.7675,809.5591,589.3287,809.9979,583.6889,805.76,592.5794" style="stroke:#4169E1;stroke-width:1;"/><text fill="#000000" font-family="Verdana" font-size="13" lengthAdjust="spacing" textLength="48.3247" x="883" y="537.6763">creates</text></g><!--link Engine to Config--><g class="link" data-entity-1="Engine" data-entity-2="Config" data-source-line="59" data-uid="lnk33" id="link_Engine_Config"><path d="M947.41,494.7994 C949.1,521.4694 951.5419,559.9813 953.2219,586.5913" fill="none" id="Engine-to-Config" style="stroke:#4169E1;stroke-width:1;"/><polygon fill="#4169E1" points="953.6,592.5794,957.025,583.3452,953.285,587.5893,949.0409,583.8493,953.6,592.5794" style="stroke:#4169E1;stroke-width:1;"/><text fill="#000000" font-family="Verdana" font-size="13" lengthAdjust="spacing" textLength="89.6924" x="951" y="537.6763">configured by</text></g><!--link Engine to Stats--><g class="link" data-entity-1="Engine" data-entity-2="Stats" data-source-line="60" data-uid="lnk34" id="link_Engine_Stats"><path d="M869.25,486.1294 C816.38,497.6694 745.88,517.5994 690,549.6094 C670.43,560.8194 655.9852,574.075 642.9052,588.145" fill="none" id="Engine-to-Stats" style="stroke:#4169E1;stroke-width:1;"/><polygon fill="#4169E1" points="638.82,592.5394,647.8774,588.6712,642.2244,588.8774,642.0182,583.2243,638.82,592.5394" style="stroke:#4169E1;stroke-width:1;"/><text fill="#000000" font-family="Verdana" font-size="13" lengthAdjust="spacing" textLength="65.6665" x="736" y="537.6763">generates</text></g><!--link Engine to Stream--><g class="link" data-entity-1="Engine" data-entity-2="Stream" data-source-line="61" data-uid="lnk35" id="link_Engine_Stream"><path d="M1022.6,478.0994 C1119.85,486.7394 1279.73,507.1194 1319,549.6094 C1374.79,609.9794 1373.6228,710.9088 1369.9028,756.9888" fill="none" id="Engine-to-Stream" style="stroke:#4169E1;stroke-width:1;"/><polygon fill="#4169E1" points="1369.42,762.9694,1374.1312,754.3204,1369.8223,757.9856,1366.1572,753.6767,1369.42,762.9694" style="stroke:#4169E1;stroke-width:1;"/><text fill="#000000" font-family="Verdana" font-size="13" lengthAdjust="spacing" textLength="59.8584" x="1367" y="620.1763">manages</text></g><!--link Engine to Event--><g class="link" data-entity-1="Engine" data-entity-2="Event" data-source-line="62" data-uid="lnk36" id="link_Engine_Event"><path d="M1022.61,475.0394 C1144.38,480.4594 1374.56,497.4694 1435,549.6094 C1500.53,606.1394 1517.3535,710.1271 1521.8835,757.0571" fill="none" id="Engine-to-Event" style="stroke:#4169E1;stroke-width:1;"/><polygon fill="#4169E1" points="1522.46,763.0294,1525.5768,753.6867,1521.9796,758.0525,1517.6138,754.4553,1522.46,763.0294" style="stroke:#4169E1;stroke-width:1;"/><text fill="#000000" font-family="Verdana" font-size="13" lengthAdjust="spacing" textLength="84.8364" x="1502" y="620.1763">synchronizes</text></g><!--link Engine to DevBuf--><g class="link" data-entity-1="Engine" data-entity-2="DevBuf" data-source-line="63" data-uid="lnk37" id="link_Engine_DevBuf"><path d="M1022.74,483.0294 C1097.41,494.9194 1203.13,517.0394 1228,549.6094 C1276.91,613.6594 1238.8678,712.2709 1217.1378,757.5109" fill="none" id="Engine-to-DevBuf" style="stroke:#4169E1;stroke-width:1;"/><polygon fill="#4169E1" points="1214.54,762.9194,1222.0424,756.5386,1216.7049,758.4123,1214.8311,753.0748,1214.54,762.9194" style="stroke:#4169E1;stroke-width:1;"/><text fill="#000000" font-family="Verdana" font-size="13" lengthAdjust="spacing" textLength="58.1255" x="1252" y="620.1763">allocates</text></g><!--link Engine to PinBuf--><g class="link" data-entity-1="Engine" data-entity-2="PinBuf" data-source-line="64" data-uid="lnk38" id="link_Engine_PinBuf"><path d="M1022.58,472.1494 C1174.52,472.7394 1507.01,481.9694 1595,549.6094 C1665.23,603.5894 1687.6191,709.5115 1694.5091,757.0315" fill="none" id="Engine-to-PinBuf" style="stroke:#4169E1;stroke-width:1;"/><polygon fill="#4169E1" points="1695.37,762.9694,1698.0372,753.4885,1694.6525,758.0211,1690.12,754.6365,1695.37,762.9694" style="stroke:#4169E1;stroke-width:1;"/><text fill="#000000" font-family="Verdana" font-size="13" lengthAdjust="spacing" textLength="42.8594" x="1671" y="620.1763">stages</text></g><!--link Engine to Window--><g class="link" data-entity-1="Engine" data-entity-2="Window" data-source-line="66" data-uid="lnk39" id="link_Engine_Window"><path d="M869.48,472.4694 C776.02,474.2594 614.04,483.7694 482,524.6094 C466.61,529.3694 465.48,537.1694 450,541.6094 C401.18,555.6094 383.66,532.0394 336,549.6094 C311.05,558.8094 291.5296,573.3654 274.9196,588.3154" fill="none" id="Engine-to-Window" style="stroke:#4169E1;stroke-width:1;stroke-dasharray:7.0,7.0;"/><polygon fill="#4169E1" points="270.46,592.3294,279.8254,589.2816,274.1764,588.9844,274.4735,583.3354,270.46,592.3294" style="stroke:#4169E1;stroke-width:1;"/><text fill="#000000" font-family="Verdana" font-size="13" lengthAdjust="spacing" textLength="81.7324" x="483" y="537.6763">orchestrates</text></g><!--link Engine to FFT--><g class="link" data-entity-1="Engine" data-entity-2="FFT" data-source-line="67" data-uid="lnk40" id="link_Engine_FFT"><path d="M869.27,475.6094 C732.59,481.5894 452.55,496.8594 359,524.6094 C343.56,529.1894 342.53,537.3394 327,541.6094 C291.39,551.3994 195.19,535.6394 161,549.6094 C138.85,558.6594 122.9384,572.9769 109.5384,588.0369" fill="none" id="Engine-to-FFT" style="stroke:#4169E1;stroke-width:1;stroke-dasharray:7.0,7.0;"/><polygon fill="#4169E1" points="105.55,592.5194,114.5209,588.4546,108.8737,588.784,108.5443,583.1367,105.55,592.5194" style="stroke:#4169E1;stroke-width:1;"/><text fill="#000000" font-family="Verdana" font-size="13" lengthAdjust="spacing" textLength="81.7324" x="360" y="537.6763">orchestrates</text></g><!--link Engine to Magnitude--><g class="link" data-entity-1="Engine" data-entity-2="Magnitude" data-source-line="68" data-uid="lnk41" id="link_Engine_Magnitude"><path d="M869.19,480.2794 C802.12,488.0394 702.56,502.1494 618,524.6094 C617.53,524.7394 552.45,549.4094 552,549.6094 C523.98,562.4894 498.6842,576.2233 475.5742,589.4833" fill="none" id="Engine-to-Magnitude" style="stroke:#4169E1;stroke-width:1;stroke-dasharray:7.0,7.0;"/><polygon fill="#4169E1" points="470.37,592.4694,480.167,591.4598,474.7068,589.981,476.1856,584.5209,470.37,592.4694" style="stroke:#4169E1;stroke-width:1;"/><text fill="#000000" font-family="Verdana" font-size="13" lengthAdjust="spacing" textLength="81.7324" x="619" y="537.6763">orchestrates</text></g><!--link Window to WinKern--><g class="link" data-entity-1="Window" data-entity-2="WinKern" data-source-line="70" data-uid="lnk42" id="link_Window_WinKern"><path d="M237.8,638.7094 C233.91,648.2894 229.94,659.7894 228,670.6094 C222.14,703.3194 233.6465,734.793 244.9665,757.643" fill="none" id="Window-to-WinKern" style="stroke:#4169E1;stroke-width:1;"/><polygon fill="#4169E1" points="247.63,763.0194,247.219,753.1791,245.4104,758.539,240.0505,756.7304,247.63,763.0194" style="stroke:#4169E1;stroke-width:1;"/><text fill="#000000" font-family="Verdana" font-size="13" lengthAdjust="spacing" textLength="58.2144" x="229" y="683.6763">launches</text></g><!--link FFT to FFTKern--><g class="link" data-entity-1="FFT" data-entity-2="FFTKern" data-source-line="71" data-uid="lnk43" id="link_FFT_FFTKern"><path d="M88,638.6394 C88,668.2594 88,715.0494 88,748.5094" fill="none" id="FFT-to-FFTKern" style="stroke:#4169E1;stroke-width:1;"/><polygon fill="#4169E1" points="88,754.5094,92,745.5094,88,749.5094,84,745.5094,88,754.5094" style="stroke:#4169E1;stroke-width:1;"/><text fill="#000000" font-family="Verdana" font-size="13" lengthAdjust="spacing" textLength="58.9443" x="89" y="683.6763">executes</text></g><!--link Magnitude to MagKern--><g class="link" data-entity-1="Magnitude" data-entity-2="MagKern" data-source-line="72" data-uid="lnk44" id="link_Magnitude_MagKern"><path d="M436.14,638.6394 C440.74,670.9294 448.414,724.8393 453.014,757.1393" fill="none" id="Magnitude-to-MagKern" style="stroke:#4169E1;stroke-width:1;"/><polygon fill="#4169E1" points="453.86,763.0794,456.5511,753.6053,453.155,758.1293,448.631,754.7332,453.86,763.0794" style="stroke:#4169E1;stroke-width:1;"/><text fill="#000000" font-family="Verdana" font-size="13" lengthAdjust="spacing" textLength="58.2144" x="443" y="683.6763">launches</text></g><!--link Window to DevBuf--><g class="link" data-entity-1="Window" data-entity-2="DevBuf" data-source-line="74" data-uid="lnk45" id="link_Window_DevBuf"><path d="M286.22,638.6494 C301.4,646.8494 319.22,655.8094 336,662.6094 C347.6,667.3094 351.26,666.2694 363,670.6094 C380.35,677.0294 382.93,683.6494 401,687.6094 C440.02,696.1694 1083.48,679.4294 1120,695.6094 C1151.19,709.4294 1172.713,736.2368 1186.813,757.9568" fill="none" id="Window-to-DevBuf" style="stroke:#4169E1;stroke-width:1;"/><polygon fill="#4169E1" points="1190.08,762.9894,1188.5345,753.2625,1187.3575,758.7956,1181.8245,757.6185,1190.08,762.9894" style="stroke:#4169E1;stroke-width:1;"/><text fill="#000000" font-family="Verdana" font-size="13" lengthAdjust="spacing" textLength="29.7832" x="402" y="683.6763">uses</text></g><!--link FFT to Plan--><g class="link" data-entity-1="FFT" data-entity-2="Plan" data-source-line="75" data-uid="lnk46" id="link_FFT_Plan"><path d="M115.8,638.7794 C128.78,647.8494 144.89,657.4194 161,662.6094 C216.52,680.4994 235.86,654.7894 292,670.6094 C307.5,674.9794 308.44,683.4494 324,687.6094 C374.48,701.0994 507.05,690.0194 559,695.6094 C720.32,712.9594 902.4871,751.4888 991.8371,771.6488" fill="none" id="FFT-to-Plan" style="stroke:#4169E1;stroke-width:1;"/><polygon fill="#4169E1" points="997.69,772.9694,989.7911,767.0866,992.8126,771.8689,988.0303,774.8904,997.69,772.9694" style="stroke:#4169E1;stroke-width:1;"/><text fill="#000000" font-family="Verdana" font-size="13" lengthAdjust="spacing" textLength="29.7832" x="325" y="683.6763">uses</text></g><!--link Magnitude to DevBuf--><g class="link" data-entity-1="Magnitude" data-entity-2="DevBuf" data-source-line="76" data-uid="lnk47" id="link_Magnitude_DevBuf"><path d="M480.01,638.6694 C501.49,647.7194 527.54,657.3094 552,662.6094 C675.57,689.3894 1005.64,641.6894 1120,695.6094 C1150.67,710.0694 1172.1004,736.4214 1186.3604,757.8914" fill="none" id="Magnitude-to-DevBuf" style="stroke:#4169E1;stroke-width:1;"/><polygon fill="#4169E1" points="1189.68,762.8894,1188.0326,753.1793,1186.9137,758.7244,1181.3686,757.6054,1189.68,762.8894" style="stroke:#4169E1;stroke-width:1;"/><text fill="#000000" font-family="Verdana" font-size="13" lengthAdjust="spacing" textLength="29.7832" x="1098" y="683.6763">uses</text></g><!--link Stream to GPU--><g class="link" data-entity-1="Stream" data-entity-2="GPU" data-source-line="78" data-uid="lnk48" id="link_Stream_GPU"><path d="M1361.91,809.3294 C1356.36,833.5694 1348.8691,866.2607 1343.3491,890.3707" fill="none" id="Stream-to-GPU" style="stroke:#4169E1;stroke-width:1;"/><polygon fill="#4169E1" points="1342.01,896.2194,1347.9177,888.3391,1343.1259,891.3455,1340.1195,886.5537,1342.01,896.2194" style="stroke:#4169E1;stroke-width:1;"/><text fill="#000000" font-family="Verdana" font-size="13" lengthAdjust="spacing" textLength="71.6587" x="1353" y="862.6763">commands</text></g><!--link Event to GPU--><g class="link" data-entity-1="Event" data-entity-2="GPU" data-source-line="79" data-uid="lnk49" id="link_Event_GPU"><path d="M1501.62,809.2294 C1483.89,826.0994 1458.02,849.2994 1433,866.6094 C1417.13,877.5894 1403.9952,885.2249 1387.5252,893.7749" fill="none" id="Event-to-GPU" style="stroke:#4169E1;stroke-width:1;"/><polygon fill="#4169E1" points="1382.2,896.5394,1392.0308,895.9428,1386.6377,894.2357,1388.3448,888.8426,1382.2,896.5394" style="stroke:#4169E1;stroke-width:1;"/><text fill="#000000" font-family="Verdana" font-size="13" lengthAdjust="spacing" textLength="84.8364" x="1455" y="862.6763">synchronizes</text></g><!--link DevBuf to GPU--><g class="link" data-entity-1="DevBuf" data-entity-2="GPU" data-source-line="80" data-uid="lnk50" id="link_DevBuf_GPU"><path d="M1224.22,809.3394 C1239.74,825.4494 1261.41,847.6494 1281,866.6094 C1291.34,876.6194 1298.5948,883.4085 1308.6048,892.5285" fill="none" id="DevBuf-to-GPU" style="stroke:#4169E1;stroke-width:1;"/><polygon fill="#4169E1" points="1313.04,896.5694,1309.0811,887.5512,1309.344,893.202,1303.6932,893.4649,1313.04,896.5694" style="stroke:#4169E1;stroke-width:1;"/><text fill="#000000" font-family="Verdana" font-size="13" lengthAdjust="spacing" textLength="58.1255" x="1282" y="862.6763">allocates</text></g><!--link PinBuf to Host--><g class="link" data-entity-1="PinBuf" data-entity-2="Host" data-source-line="81" data-uid="lnk51" id="link_PinBuf_Host"><path d="M1699.7,809.3294 C1701.55,833.5694 1704.0334,866.1268 1705.8734,890.2368" fill="none" id="PinBuf-to-Host" style="stroke:#4169E1;stroke-width:1;"/><polygon fill="#4169E1" points="1706.33,896.2194,1709.6335,886.9411,1705.9495,891.2339,1701.6567,887.5499,1706.33,896.2194" style="stroke:#4169E1;stroke-width:1;"/><text fill="#000000" font-family="Verdana" font-size="13" lengthAdjust="spacing" textLength="58.1255" x="1704" y="862.6763">allocates</text></g><!--link Engine to NVTX--><g class="link" data-entity-1="Engine" data-entity-2="NVTX" data-source-line="83" data-uid="lnk52" id="link_Engine_NVTX"><path d="M1022.5,472.3394 C1192.49,472.5894 1596.64,478.2294 1724,524.6094 C1763.78,539.0994 1797.5091,566.519 1820.4891,588.129" fill="none" id="Engine-to-NVTX" style="stroke:#4169E1;stroke-width:1;stroke-dasharray:7.0,7.0;"/><polygon fill="#4169E1" points="1824.86,592.2394,1821.0438,583.1599,1821.2176,588.8141,1815.5634,588.9878,1824.86,592.2394" style="stroke:#4169E1;stroke-width:1;"/><text fill="#000000" font-family="Verdana" font-size="13" lengthAdjust="spacing" textLength="78.0762" x="1758" y="537.6763">instruments</text></g><!--link Engine to Metrics--><g class="link" data-entity-1="Engine" data-entity-2="Metrics" data-source-line="84" data-uid="lnk53" id="link_Engine_Metrics"><path d="M1022.74,474.9494 C1210.22,480.9894 1687.69,498.5194 1845,524.6094 C1885.96,531.3994 1896.8,533.3494 1935,549.6094 C1962.35,561.2494 1986.1763,575.2442 2007.4663,589.0542" fill="none" id="Engine-to-Metrics" style="stroke:#4169E1;stroke-width:1;stroke-dasharray:7.0,7.0;"/><polygon fill="#4169E1" points="2012.5,592.3194,2007.1262,584.0658,2008.3052,589.5984,2002.7726,590.7774,2012.5,592.3194" style="stroke:#4169E1;stroke-width:1;"/><text fill="#000000" font-family="Verdana" font-size="13" lengthAdjust="spacing" textLength="49.3403" x="1915" y="537.6763">collects</text></g><!--link StageFactory to Window--><g class="link" data-entity-1="StageFactory" data-entity-2="Window" data-source-line="86" data-uid="lnk54" id="link_StageFactory_Window"><path d="M180.66,494.7694 C178.36,508.6594 177.33,526.7094 183,541.6094 C190.55,561.4294 201.8287,575.2108 215.8987,588.3108" fill="none" id="StageFactory-to-Window" style="stroke:#4169E1;stroke-width:1;"/><polygon fill="#4169E1" points="220.29,592.3994,216.4287,583.339,216.6306,588.9922,210.9773,589.1941,220.29,592.3994" style="stroke:#4169E1;stroke-width:1;"/><text fill="#000000" font-family="Verdana" font-size="13" lengthAdjust="spacing" textLength="48.3247" x="184" y="537.6763">creates</text></g><!--link StageFactory to FFT--><g class="link" data-entity-1="StageFactory" data-entity-2="FFT" data-source-line="87" data-uid="lnk55" id="link_StageFactory_FFT"><path d="M151.4,494.6994 C140.5,503.0094 129.19,513.2294 121,524.6094 C106.22,545.1394 98.7996,567.1946 94.0396,586.4546" fill="none" id="StageFactory-to-FFT" style="stroke:#4169E1;stroke-width:1;"/><polygon fill="#4169E1" points="92.6,592.2794,98.6425,584.502,93.7996,587.4254,90.8762,582.5826,92.6,592.2794" style="stroke:#4169E1;stroke-width:1;"/><text fill="#000000" font-family="Verdana" font-size="13" lengthAdjust="spacing" textLength="48.3247" x="122" y="537.6763">creates</text></g><!--link StageFactory to Magnitude--><g class="link" data-entity-1="StageFactory" data-entity-2="Magnitude" data-source-line="88" data-uid="lnk56" id="link_StageFactory_Magnitude"><path d="M207.04,494.8194 C223.42,510.6394 247.59,530.9194 273,541.6094 C299.01,552.5594 309.57,539.7094 336,549.6094 C362.39,559.4894 384.0138,574.0876 402.5638,588.7576" fill="none" id="StageFactory-to-Magnitude" style="stroke:#4169E1;stroke-width:1;"/><polygon fill="#4169E1" points="407.27,592.4794,402.6919,583.7592,403.3482,589.3779,397.7295,590.0341,407.27,592.4794" style="stroke:#4169E1;stroke-width:1;"/><text fill="#000000" font-family="Verdana" font-size="13" lengthAdjust="spacing" textLength="48.3247" x="274" y="537.6763">creates</text></g><!--link Engine to GMN63--><g class="link" data-entity-1="Engine" data-entity-2="GMN63" data-source-line="102" data-uid="lnk65" id="link_Engine_GMN63"><path d="M998.34,494.6894 C1015.25,502.9294 1033.58,513.1094 1049,524.6094 C1076.91,545.4194 1103.54,575.9394 1119.32,595.5394" fill="none" id="Engine-GMN63" style="stroke:#4169E1;stroke-width:1;stroke-dasharray:7.0,7.0;"/></g><g class="footer" data-source-line="11"><text fill="#000000" font-family="Verdana" font-size="10" lengthAdjust="spacing" textLength="213.7549" x="968.6226" y="972.1885">IEEE Publication Quality Diagram - &#169; 2025</text></g><!--SRC=[VLRRRkCs47tNLqozG2zOPE5iisaJB08ajjGrsWtKlRG5sZxGqbWcLY85adAg5lsW_aQ_h3CK5KbMNFY5d7DuPZWNof-vFLO8TIcaYkmdgMfXH0LRaNqgZ6vKljAbDl0iYVatOcIwghL2vUvcr6NoRP8yITKcHnDe5-UNL_7vY5QJa2XmfXTV9bzFz7hY_we9O_J3AL1fD_UJ9CdjQXr5JheIOQELjgWimfjq1MUmwYy1joRRIuUPQmn6EqrI1ZPn74FQR4kP2IUrWXyRKKhNmbgAWZsUmR__mClborTH5CA7HTgwFL7lfCgbAYpy85eq2mualemluQy8XjJ1hsdx3YqASXwhGYhy7OI5jEqsKshTRadp_1pUwhmfUoRxYVuU-LyzVnvYXjjqi-WpVUpu2RTFEUria8ZCQTDwMbXFUIkjTh9eZC-JftMMAUkz8zmwcLbFuQsT19yQdQ6rb3X8POqb-JvvWv_fvlg1HOek_ium9IN9Xn63TbFuhIYKT4sE8zAZRHPxCKs4j_JPc9JWu_eMAC6wCHcIdY9hHI9qbVK5NMPsbLMJY_VEeAY2C2_dbFX0owvKl9eIrdYG6TurknqQpo43xOxQJIg5-HjjtOX8nXbnHR1BIz7LaXVp6twFHc5f5_3wTUVyviQt-SNTgnEr2YVwQl5sNgv0-arzcJMq_wglt9mzL6yiJ5PFFUghdIovhJwdl6oRWWTo-LGfxd_wy0iyqhqWcuxIY6QdJIKKbnUTwHiwhDbrBfpO2dfe5j-b7mceg4aMpE4jPMdzpN8v8d59nYo_VtQrZEEhPHHzmTEaw76YuR9H_pp0sTbDU07W6XwCg1dpMqO2wHhusR1HD3eKcfQmZ3hDeHs3tU0o5cOQSzYsOuQVMo8KgD0S7- -Qbz3Az_q4ysrBa6rLjZTQoJ-dUDUoH11bgRDZvQvF-RZpmZtsuiLDc7t2DBrfQDqaB2PmPvr6XquwuaH1cFs7ZYLAAHh5f8XLVKAxzYG8_y2iuPE391D2KuxFZgKVBzxOaIgFNM-RoatvKSWv8znUNBgAqazLxp8-09FC1vK17T8USisGRyKnDawS7vTha8eIrl0RDqrhDmy-eBAa_lMn3gzcdzQkT7qlpXXTxKx2u-Br91gPUyqB_bC0JjUWT-FlQlXAIqNV-PsWCQwDFaZ-OXDutrHfo_yrHCj3S41ZQV0YfC5YkQWJDRBOEvQbtD6XxWc4oizmQFwSx0SfuDtjPkC7j2QfOvsjTavNB3H49wkw10g7x7kPqpK0_9EROqsdKMKI1vt_0000]--></g></svg>